<svg id="Layer_1" data-name="Layer 1" xmlns="http://www.w3.org/2000/svg" width="292" height="68.206" viewBox="0 0 292 68.206">
  <g id="Group_5" data-name="Group 5">
    <g id="Group_1" data-name="Group 1" transform="translate(113.529 0.294)">
      <path id="Path_1" data-name="Path 1" d="M306.845,42.218l12.681,12.836,1.408-1.4L315.5,48.152l11.928-11.928,11.932,11.932-5.442,5.506,1.412,1.392,12.681-12.836,13,12.844,1.4-1.408-5.3-5.232v-3.86h-2.4v1.5l-6.719-6.644-7.243,7.33-5.018-5.018V37.986h-2.3v1.44l-6.005-6.005-6.005,6.005V37.982h-2.3v3.741L314.1,46.744l-7.243-7.33-6.723,6.64V44.562h-2.4v3.86L292.45,53.65l1.4,1.412Z" transform="translate(-289.975 -20.457)" fill="#6e6e6f"/>
      <path id="Path_2" data-name="Path 2" d="M325.25,63.23l-5.879-5.95-6.021,5.946.583.587,5.43-5.363,5.3,5.359Z" transform="translate(-302.585 -34.853)" fill="#6e6e6f"/>
      <path id="Path_3" data-name="Path 3" d="M328.4,4.679v.008s.036,0,.1,0h.06c2.1-.067,24.093-.155,34.2,23.185,0,0-7.521-26.572-34.2-27.12V.74H328.4c-26.676.547-34.2,27.124-34.2,27.124,10.1-23.34,32.094-23.252,34.2-23.189Z" transform="translate(-291.031 -0.74)" fill="#6e6e6f"/>
      <rect id="Rectangle_1" data-name="Rectangle 1" width="3.161" height="3.439" transform="translate(13.356 34.169)" fill="#f9ce00"/>
      <rect id="Rectangle_2" data-name="Rectangle 2" width="3.161" height="3.439" transform="translate(17.183 34.169)" fill="#f9ce00"/>
      <path id="Path_4" data-name="Path 4" d="M319.88,99.529q1.517-.434,3.161-.809v-1.9H319.88Z" transform="translate(-306.524 -58.709)" fill="#f9ce00"/>
      <path id="Path_5" data-name="Path 5" d="M332.7,96.82H329.54v1.749c1.023-.226,2.075-.432,3.161-.619Z" transform="translate(-312.353 -58.709)" fill="#f9ce00"/>
      <path id="Path_6" data-name="Path 6" d="M429.8,63.226l-6.017-5.946L417.9,63.23l.587.583,5.3-5.363,5.43,5.367Z" transform="translate(-365.663 -34.853)" fill="#6e6e6f"/>
      <path id="Path_7" data-name="Path 7" d="M323.742,98.14h0c-20.682,0-35.343,5.47-37.532,11.487,10.341-8.147,35.133-8.318,37.37-8.318h0s26.7-.218,37.532,8.318C358.93,103.626,344.337,98.168,323.742,98.14Z" transform="translate(-286.21 -59.505)" fill="#6e6e6f"/>
      <path id="Path_8" data-name="Path 8" d="M377.443,49.1l-5.823-5.819-.305-.266L365.23,49.1l.611.607,5.494-5.494,5.5,5.5Z" transform="translate(-333.886 -26.249)" fill="#6e6e6f"/>
      <path id="Path_9" data-name="Path 9" d="M379.072,80.782v-9.3H373.11v9.3h2.9v0Z" transform="translate(-338.64 -43.42)" fill="#3c787e"/>
      <rect id="Rectangle_3" data-name="Rectangle 3" width="3.161" height="3.439" transform="translate(58.385 34.173)" fill="#f9ce00"/>
      <rect id="Rectangle_4" data-name="Rectangle 4" width="3.161" height="3.439" transform="translate(54.553 34.173)" fill="#f9ce00"/>
      <path id="Path_10" data-name="Path 10" d="M436.561,96.82H433.4v1.9q1.642.375,3.161.809Z" transform="translate(-375.015 -58.709)" fill="#f9ce00"/>
      <path id="Path_11" data-name="Path 11" d="M423.74,97.95c1.087.186,2.138.393,3.161.619V96.82H423.74Z" transform="translate(-369.187 -58.709)" fill="#f9ce00"/>
    </g>
    <g id="Group_2" data-name="Group 2" transform="translate(0 55.957)">
      <path id="Path_12" data-name="Path 12" d="M7.858,153.675V149H2.178v4.673H0V142.12H2.178v4.871H7.854V142.12h2.162v11.555H7.854Z" transform="translate(0 -141.704)" fill="#6e6e6f"/>
      <path id="Path_13" data-name="Path 13" d="M37.555,154.52a4.062,4.062,0,0,1-4.24,4.24,4.24,4.24,0,0,1-.016-8.481,4.116,4.116,0,0,1,4.26,4.24Zm-6.454,0a2.22,2.22,0,1,0,4.427,0,2.289,2.289,0,0,0-2.213-2.412A2.239,2.239,0,0,0,31.1,154.52Z" transform="translate(-17.551 -146.627)" fill="#6e6e6f"/>
      <path id="Path_14" data-name="Path 14" d="M59.334,158.606v-4.359c0-1.071-.563-2.047-1.666-2.047a1.85,1.85,0,0,0-1.733,2.047v4.359H53.92v-8.155h1.864l.147.992a2.356,2.356,0,0,1,2.146-1.123,2.441,2.441,0,0,1,2.412,1.519,2.946,2.946,0,0,1,2.725-1.484c2.313,0,3.451,1.42,3.451,3.863v4.391H64.65v-4.391c0-1.071-.444-1.979-1.535-1.979a1.851,1.851,0,0,0-1.765,2.015v4.359H59.334Z" transform="translate(-32.532 -146.651)" fill="#6e6e6f"/>
      <path id="Path_15" data-name="Path 15" d="M92.379,155.1a2.166,2.166,0,0,0,2.428,1.733,3.367,3.367,0,0,0,2.178-.758l1.289,1.269a4.99,4.99,0,0,1-3.5,1.321,4.1,4.1,0,0,1-4.474-4.34,4.005,4.005,0,0,1,4.324-4.26c2.642,0,4.423,1.682,4.109,5.034Zm4.423-1.666a1.865,1.865,0,0,0-2.114-1.587,2.189,2.189,0,0,0-2.277,1.587Z" transform="translate(-54.481 -146.5)" fill="#6e6e6f"/>
      <path id="Path_16" data-name="Path 16" d="M117.465,142.12v11.539h-2V142.12Z" transform="translate(-69.667 -141.704)" fill="#6e6e6f"/>
      <path id="Path_17" data-name="Path 17" d="M126.119,155.1c.131,1.008,1.008,1.733,2.428,1.733a3.367,3.367,0,0,0,2.178-.758l1.289,1.269a4.99,4.99,0,0,1-3.5,1.321,4.1,4.1,0,0,1-4.474-4.34,4.005,4.005,0,0,1,4.324-4.26c2.642,0,4.423,1.682,4.109,5.034Zm4.423-1.666a1.865,1.865,0,0,0-2.114-1.587,2.189,2.189,0,0,0-2.277,1.587Z" transform="translate(-74.838 -146.5)" fill="#6e6e6f"/>
      <path id="Path_18" data-name="Path 18" d="M153.844,152.5a2.752,2.752,0,0,0-2.015-.726c-.956,0-1.487.3-1.487.809s.48.825,1.519.892c1.535.1,3.483.444,3.483,2.606,0,1.436-1.17,2.674-3.5,2.674a4.764,4.764,0,0,1-3.764-1.452l.992-1.436a4.474,4.474,0,0,0,2.8,1.138c.758.016,1.468-.381,1.468-.976,0-.563-.464-.793-1.618-.857-1.535-.115-3.368-.678-3.368-2.527s1.948-2.543,3.431-2.543a4.371,4.371,0,0,1,3.169,1.071l-1.123,1.321Z" transform="translate(-89.342 -146.518)" fill="#6e6e6f"/>
      <path id="Path_19" data-name="Path 19" d="M174.28,152.5a2.752,2.752,0,0,0-2.015-.726c-.956,0-1.484.3-1.484.809s.48.825,1.519.892c1.535.1,3.483.444,3.483,2.606,0,1.436-1.17,2.674-3.5,2.674a4.764,4.764,0,0,1-3.764-1.452l.992-1.436a4.474,4.474,0,0,0,2.8,1.138c.758.016,1.468-.381,1.468-.976,0-.563-.464-.793-1.618-.857-1.535-.115-3.368-.678-3.368-2.527s1.948-2.543,3.431-2.543a4.371,4.371,0,0,1,3.169,1.071l-1.123,1.321Z" transform="translate(-101.674 -146.518)" fill="#6e6e6f"/>
      <path id="Path_20" data-name="Path 20" d="M198.89,153.635V142.08h2.162v11.555Z" transform="translate(-119.998 -141.679)" fill="#6e6e6f"/>
      <path id="Path_21" data-name="Path 21" d="M215.041,158.63v-4.26a1.941,1.941,0,0,0-1.963-2.178A2.111,2.111,0,0,0,211,154.469v4.161h-2v-8.155h1.8l.131,1.107a3.668,3.668,0,0,1,2.674-1.222c1.916,0,3.451,1.436,3.451,3.994v4.276Z" transform="translate(-126.097 -146.675)" fill="#6e6e6f"/>
      <path id="Path_22" data-name="Path 22" d="M234.6,144.91v2.313h2.245v1.733h-2.261v3.514a1.008,1.008,0,0,0,1.055,1.154,2.336,2.336,0,0,0,.976-.246l.563,1.718a4.5,4.5,0,0,1-1.666.345c-1.765.067-2.919-.94-2.919-2.971v-3.514H231.07v-1.733h1.519v-2.094l2.015-.214Z" transform="translate(-139.413 -143.387)" fill="#6e6e6f"/>
      <path id="Path_23" data-name="Path 23" d="M250.579,155.1a2.166,2.166,0,0,0,2.428,1.733,3.367,3.367,0,0,0,2.178-.758l1.289,1.269a4.99,4.99,0,0,1-3.5,1.321,4.1,4.1,0,0,1-4.474-4.34,4.005,4.005,0,0,1,4.324-4.26c2.642,0,4.423,1.682,4.109,5.034h-6.355ZM255,153.438a1.865,1.865,0,0,0-2.114-1.587,2.189,2.189,0,0,0-2.277,1.587Z" transform="translate(-149.929 -146.5)" fill="#6e6e6f"/>
      <path id="Path_24" data-name="Path 24" d="M275.522,150.364l.147.94a2.394,2.394,0,0,1,2.293-1.154,3.1,3.1,0,0,1,2.094.777l-.908,1.749a2.019,2.019,0,0,0-1.452-.528,1.878,1.878,0,0,0-2.031,2.063V158.5H273.65v-8.136h1.864Z" transform="translate(-165.103 -146.548)" fill="#6e6e6f"/>
      <path id="Path_25" data-name="Path 25" d="M300.4,150.644l-3.467,8.187h-2.178l-3.483-8.187h2.194l1.123,2.689,1.253,3.431,1.238-3.4,1.123-2.725h2.194Z" transform="translate(-175.734 -146.844)" fill="#6e6e6f"/>
      <path id="Path_26" data-name="Path 26" d="M317.9,155.1c.131,1.008,1.008,1.733,2.428,1.733a3.367,3.367,0,0,0,2.178-.758l1.289,1.269a4.99,4.99,0,0,1-3.5,1.321,4.1,4.1,0,0,1-4.474-4.34,4.005,4.005,0,0,1,4.324-4.26c2.642,0,4.423,1.682,4.109,5.034Zm4.423-1.666a1.865,1.865,0,0,0-2.114-1.587,2.189,2.189,0,0,0-2.277,1.587Z" transform="translate(-190.546 -146.5)" fill="#6e6e6f"/>
      <path id="Path_27" data-name="Path 27" d="M346.911,158.63v-4.26a1.941,1.941,0,0,0-1.964-2.178,2.111,2.111,0,0,0-2.078,2.277v4.161h-2v-8.155h1.8l.131,1.107a3.667,3.667,0,0,1,2.674-1.222c1.916,0,3.451,1.436,3.451,3.994v4.276Z" transform="translate(-205.659 -146.675)" fill="#6e6e6f"/>
      <path id="Path_28" data-name="Path 28" d="M366.45,144.91v2.313H368.7v1.733h-2.261v3.514a1.008,1.008,0,0,0,1.055,1.154,2.336,2.336,0,0,0,.976-.246l.559,1.718a4.5,4.5,0,0,1-1.666.345c-1.765.067-2.919-.94-2.919-2.971v-3.514H362.92v-1.733h1.519v-2.094l2.015-.214Z" transform="translate(-218.963 -143.387)" fill="#6e6e6f"/>
      <path id="Path_29" data-name="Path 29" d="M383.186,143.123a1.188,1.188,0,0,1-2.376,0A1.188,1.188,0,0,1,383.186,143.123Zm-2.193,2.261v8.171h2.015v-8.171Z" transform="translate(-229.757 -141.599)" fill="#6e6e6f"/>
      <path id="Path_30" data-name="Path 30" d="M398.895,154.52a4.232,4.232,0,1,1-4.256-4.24,4.116,4.116,0,0,1,4.26,4.24Zm-6.454,0a2.22,2.22,0,1,0,4.427,0,2.289,2.289,0,0,0-2.213-2.412A2.239,2.239,0,0,0,392.441,154.52Z" transform="translate(-235.561 -146.627)" fill="#6e6e6f"/>
      <path id="Path_31" data-name="Path 31" d="M421.181,158.63v-4.26a1.941,1.941,0,0,0-1.964-2.178,2.111,2.111,0,0,0-2.079,2.277v4.161h-2v-8.155h1.8l.131,1.107a3.667,3.667,0,0,1,2.674-1.222c1.916,0,3.451,1.436,3.451,3.994v4.276Z" transform="translate(-250.469 -146.675)" fill="#6e6e6f"/>
      <path id="Path_32" data-name="Path 32" d="M454.72,144.259a3.315,3.315,0,0,0-2.741-1.289c-1.618,0-2.392.678-2.392,1.535,0,1.008,1.19,1.289,2.574,1.452,2.412.3,4.653.924,4.653,3.681,0,2.574-2.277,3.681-4.851,3.681-2.36,0-4.177-.726-5.034-2.84l1.817-.94A3.3,3.3,0,0,0,452,151.371c1.4,0,2.658-.48,2.658-1.733,0-1.091-1.138-1.535-2.673-1.7-2.36-.282-4.538-.908-4.538-3.5,0-2.376,2.344-3.352,4.474-3.368,1.8,0,3.665.512,4.538,2.293l-1.733.892Z" transform="translate(-269.649 -141.07)" fill="#6e6e6f"/>
      <path id="Path_33" data-name="Path 33" d="M478.219,155.1a2.166,2.166,0,0,0,2.428,1.733,3.367,3.367,0,0,0,2.178-.758l1.289,1.269a4.99,4.99,0,0,1-3.5,1.321,4.1,4.1,0,0,1-4.474-4.34,4.005,4.005,0,0,1,4.324-4.26c2.642,0,4.423,1.682,4.109,5.034Zm4.423-1.666a1.865,1.865,0,0,0-2.114-1.587,2.189,2.189,0,0,0-2.277,1.587Z" transform="translate(-287.273 -146.5)" fill="#6e6e6f"/>
      <path id="Path_34" data-name="Path 34" d="M503.162,150.364l.147.94a2.394,2.394,0,0,1,2.293-1.154,3.1,3.1,0,0,1,2.094.777l-.908,1.749a2.019,2.019,0,0,0-1.452-.528,1.877,1.877,0,0,0-2.031,2.063V158.5H501.29v-8.136h1.864Z" transform="translate(-302.447 -146.548)" fill="#6e6e6f"/>
      <path id="Path_35" data-name="Path 35" d="M528.037,150.644l-3.467,8.187h-2.178l-3.483-8.187H521.1l1.123,2.689,1.253,3.431,1.238-3.4,1.122-2.725h2.194Z" transform="translate(-313.077 -146.844)" fill="#6e6e6f"/>
      <path id="Path_36" data-name="Path 36" d="M546.3,143.123a1.188,1.188,0,0,1-2.376,0A1.188,1.188,0,0,1,546.3,143.123Zm-2.194,2.261v8.171h2.015v-8.171Z" transform="translate(-328.167 -141.599)" fill="#6e6e6f"/>
      <path id="Path_37" data-name="Path 37" d="M560.281,157.436a4.19,4.19,0,0,1-3.138,1.289,4.308,4.308,0,1,1,0-8.616,3.864,3.864,0,0,1,2.939,1.206l-1.269,1.337a2.473,2.473,0,0,0-1.634-.643,2.291,2.291,0,0,0-2.344,2.412,2.216,2.216,0,0,0,2.313,2.376,2.438,2.438,0,0,0,1.781-.678l1.353,1.321Z" transform="translate(-333.537 -146.524)" fill="#6e6e6f"/>
      <path id="Path_38" data-name="Path 38" d="M575.879,155.1c.131,1.008,1.007,1.733,2.428,1.733a3.366,3.366,0,0,0,2.178-.758l1.289,1.269a4.99,4.99,0,0,1-3.5,1.321,4.1,4.1,0,0,1-4.474-4.34,4.005,4.005,0,0,1,4.324-4.26c2.642,0,4.423,1.682,4.109,5.034h-6.355Zm4.423-1.666a1.865,1.865,0,0,0-2.114-1.587,2.189,2.189,0,0,0-2.277,1.587Z" transform="translate(-346.195 -146.5)" fill="#6e6e6f"/>
      <path id="Path_39" data-name="Path 39" d="M603.6,152.5a2.752,2.752,0,0,0-2.015-.726c-.956,0-1.488.3-1.488.809s.48.825,1.519.892c1.535.1,3.483.444,3.483,2.606,0,1.436-1.17,2.674-3.5,2.674a4.764,4.764,0,0,1-3.764-1.452l.992-1.436a4.474,4.474,0,0,0,2.8,1.138c.758.016,1.468-.381,1.468-.976,0-.563-.464-.793-1.618-.857-1.535-.115-3.368-.678-3.368-2.527s1.948-2.543,3.431-2.543a4.371,4.371,0,0,1,3.169,1.071l-1.123,1.321Z" transform="translate(-360.699 -146.518)" fill="#6e6e6f"/>
      <path id="Path_40" data-name="Path 40" d="M635.325,154.52a4.232,4.232,0,1,1-4.256-4.24,4.116,4.116,0,0,1,4.26,4.24Zm-6.454,0a2.22,2.22,0,1,0,4.427,0,2.289,2.289,0,0,0-2.213-2.412A2.239,2.239,0,0,0,628.871,154.52Z" transform="translate(-378.208 -146.627)" fill="#6e6e6f"/>
      <path id="Path_41" data-name="Path 41" d="M651.039,153.339v-6.255H649.52v-1.765h1.519v-.543a2.946,2.946,0,0,1,3.1-3.185,3.939,3.939,0,0,1,2.114.658l-.742,1.5a2.232,2.232,0,0,0-1.238-.428c-.694,0-1.222.464-1.222,1.452v.543h2.392v1.765h-2.392v6.255Z" transform="translate(-391.879 -141.384)" fill="#6e6e6f"/>
      <path id="Path_42" data-name="Path 42" d="M687.818,147.573c-.032,2.987-1.864,5.974-5.926,5.974a5.631,5.631,0,0,1-5.942-5.958,5.936,5.936,0,1,1,11.868-.016Zm-9.722.048c.048,1.9,1.075,3.927,3.8,3.927s3.749-2.047,3.78-3.943c.032-1.948-1.055-4.125-3.78-4.125A3.752,3.752,0,0,0,678.1,147.621Z" transform="translate(-407.826 -141.329)" fill="#6e6e6f"/>
      <path id="Path_43" data-name="Path 43" d="M719.586,151.829a6.1,6.1,0,0,1-4.391,1.718c-4.292,0-6.109-2.955-6.125-5.958a5.814,5.814,0,0,1,6.125-6.089,5.961,5.961,0,0,1,4.24,1.765l-1.452,1.4a3.969,3.969,0,0,0-2.788-1.091,3.789,3.789,0,0,0-3.979,4.01,3.7,3.7,0,0,0,3.979,3.911,4.252,4.252,0,0,0,2.9-1.17l1.488,1.5Z" transform="translate(-427.808 -141.329)" fill="#6e6e6f"/>
    </g>
    <g id="Group_3" data-name="Group 3" transform="translate(194.623 0.813)">
      <path id="Path_44" data-name="Path 44" d="M539.507,27.056c-.135,12.3-7.679,24.6-24.395,24.6S490.65,39.626,490.65,27.123,498.667,2.05,515.112,2.05,539.642,14.62,539.507,27.056Zm-40.019.2c.2,7.814,4.415,16.172,15.629,16.172S530.539,35,530.677,27.191c.135-8.017-4.347-16.985-15.561-16.985s-15.831,9.036-15.629,17.057Z" transform="translate(-490.65 -2.05)" fill="#3c787e"/>
      <path id="Path_45" data-name="Path 45" d="M670.3,44.588a25.065,25.065,0,0,1-18.072,7.065c-17.667,0-25.141-12.162-25.208-24.53-.068-12.435,8.016-25.073,25.208-25.073a24.539,24.539,0,0,1,17.461,7.271L663.711,15.1a16.339,16.339,0,0,0-11.483-4.486c-11.484,0-16.442,8.56-16.374,16.509.068,7.882,4.621,16.1,16.374,16.1A17.511,17.511,0,0,0,664.187,38.4l6.117,6.184Z" transform="translate(-572.926 -2.05)" fill="#3c787e"/>
    </g>
    <g id="Group_4" data-name="Group 4" transform="translate(0.492)">
      <path id="Path_46" data-name="Path 46" d="M33.584,51.844V32.614H10.209v19.23H1.24V4.28h8.969V24.323H33.584V4.28h8.9V51.844Z" transform="translate(-1.24 -2.582)" fill="#3c787e"/>
      <path id="Path_47" data-name="Path 47" d="M126.63,51.674V4.11h8.9V51.674h-8.9Z" transform="translate(-76.892 -2.48)" fill="#3c787e"/>
      <path id="Path_48" data-name="Path 48" d="M198.954,13.114c-1.63-2.717-6.117-5.3-11.281-5.3-6.66,0-9.853,2.785-9.853,6.319,0,4.145,4.891,5.3,10.6,5.978,9.921,1.222,19.163,3.8,19.163,15.153,0,10.6-9.377,15.153-19.976,15.153-9.718,0-17.191-2.991-20.726-11.686l7.473-3.871c2.106,5.232,7.612,7.541,13.387,7.541s10.94-1.971,10.94-7.136c0-4.486-4.689-6.319-11.007-7-9.718-1.154-18.687-3.737-18.687-14.4C168.99,4.078,178.637.067,187.4,0c7.406,0,15.085,2.106,18.687,9.445l-7.136,3.669Z" transform="translate(-101.177)" fill="#3c787e"/>
    </g>
  </g>
</svg>
