<?xml version="1.0" encoding="UTF-8"?>
<svg id="Layer_2" data-name="Layer 2" xmlns="http://www.w3.org/2000/svg" viewBox="0 0 462.38 101.4">
  <defs>
    <style>
      .cls-1 {
        fill: #0267ff;
      }
    </style>
  </defs>
  <g id="Layer_1-2" data-name="Layer 1">
    <g>
      <g>
        <path id="Path_1" data-name="Path 1" d="m138.05,54.86c-2.14,0-4.28-.24-6.31-.83-2.02-.6-3.81-1.67-5.36-3.09-.36-.36-.71-.71-.95-1.19-.24-.48-.36-.95-.36-1.43,0-.71.24-1.43.83-2.02.48-.6,1.31-.95,2.02-.83.6,0,1.19.24,1.67.6,1.19.95,2.38,1.79,3.81,2.38s3.09.83,4.64.83c1.19,0,2.26-.24,3.45-.6.95-.36,1.79-.83,2.5-1.55.6-.6.95-1.43.95-2.26,0-.95-.24-1.79-.95-2.5-.71-.83-1.67-1.43-2.74-1.79-1.55-.6-3.09-.95-4.64-1.07-1.67-.24-3.21-.6-4.76-1.19-1.31-.48-2.38-1.19-3.45-2.14-.95-.83-1.67-1.9-2.02-2.98-.48-1.19-.71-2.5-.71-3.81,0-2.02.48-3.93,1.67-5.59,1.19-1.55,2.74-2.74,4.52-3.45,2.02-.83,4.17-1.19,6.31-1.19,2.02,0,4.05.36,6.07.95,1.67.6,3.21,1.43,4.52,2.5.83.6,1.43,1.55,1.43,2.62,0,.71-.36,1.43-.83,2.02-.48.6-1.19.95-2.02.95-.48,0-.95-.12-1.31-.48-.6-.6-1.43-.95-2.14-1.31-.95-.48-1.9-.83-2.86-1.07-.95-.24-1.9-.36-2.86-.48-1.19,0-2.5.12-3.57.6-.83.24-1.67.83-2.26,1.55-.48.6-.71,1.43-.71,2.14,0,.95.24,1.79.83,2.5.71.71,1.55,1.31,2.5,1.55,1.31.48,2.62.71,3.93,1.07,1.79.36,3.57.71,5.24,1.31,1.31.48,2.62,1.07,3.81,1.9.95.71,1.79,1.79,2.26,2.98.48,1.43.83,2.86.71,4.28,0,2.02-.6,3.93-1.79,5.59-1.19,1.55-2.86,2.86-4.76,3.57-2.02.48-4.17.95-6.31.95"/>
        <path id="Path_2" data-name="Path 2" d="m162.81,51.29c0,.83-.36,1.67-.95,2.14-.6.6-1.43.83-2.14.83-1.67.12-2.98-1.19-3.09-2.86v-29.04c0-.83.36-1.55.95-2.14s1.43-.95,2.26-.83c.83,0,1.55.36,2.14.83.6.6.95,1.31.95,2.14v28.92h-.12Z"/>
        <path id="Path_3" data-name="Path 3" d="m186.85,54.86c-2.38,0-4.88-.48-7.14-1.43-4.4-1.79-7.85-5.24-9.76-9.64-1.9-4.52-1.9-9.52,0-14.04,1.9-4.28,5.36-7.74,9.76-9.64,2.26-.95,4.64-1.43,7.14-1.43,1.55,0,3.09.12,4.52.48,1.43.36,2.74.83,4.05,1.55.48.24.83.6,1.07,1.07s.36.83.36,1.43c0,.83-.24,1.55-.83,2.14-.48.6-1.31.95-2.02.95-.24,0-.6,0-.83-.12s-.6-.12-.83-.24c-1.79-.71-3.69-1.19-5.59-1.19-2.14,0-4.17.6-5.95,1.67s-3.21,2.62-4.28,4.4c-2.14,3.69-2.14,8.33,0,12.02,1.07,1.79,2.5,3.33,4.28,4.4s3.81,1.67,5.95,1.67c1.07,0,2.26-.12,3.33-.24.95-.12,2.02-.48,2.98-.83l-.48,1.55v-8.57l.83.71h-5.59c-.83,0-1.55-.24-2.14-.83-1.19-1.19-1.19-3.09,0-4.28.6-.6,1.31-.83,2.14-.83h8.21c.83,0,1.55.24,2.14.83s.83,1.31.83,2.14v10.59c0,.6-.12,1.19-.48,1.67-.24.36-.71.71-1.07,1.07-1.55.95-3.21,1.67-5,2.26-1.79.48-3.69.71-5.59.71"/>
        <path id="Path_4" data-name="Path 4" d="m208.27,19.28c.48,0,1.07.12,1.43.36.48.24.83.6,1.19.95l12.14,18.68-2.5-.12,12.5-18.57c.48-.83,1.43-1.31,2.5-1.31.83,0,1.55.36,2.14.83.6.6.95,1.31.95,2.14v28.92c0,1.67-1.19,2.98-2.86,3.09h-.24c-.83,0-1.67-.24-2.26-.83s-.95-1.31-.83-2.14v-23.56l1.9.48-10.23,15.59c-.36.36-.71.71-1.07.95-.36.24-.83.36-1.43.36-.48,0-.95-.12-1.31-.36-.48-.24-.83-.6-1.07-.95l-9.52-15.11,1.31-2.62v25.23c0,.83-.24,1.55-.83,2.14s-1.31.95-2.14.83c-.83,0-1.55-.24-2.02-.83-.6-.6-.83-1.43-.83-2.14v-28.92c0-.83.36-1.55.95-2.14.48-.6,1.31-.95,2.14-.95"/>
        <path id="Path_5" data-name="Path 5" d="m258.85,27.25l-10.83,25.35c-.24.6-.6,1.07-1.07,1.43s-.95.48-1.55.48c-.71.12-1.43-.24-2.02-.71-.48-.48-.71-1.19-.6-1.9,0-.36,0-.6.12-.95l12.5-29.87c.24-.6.71-1.19,1.19-1.55s1.19-.48,1.79-.48c1.31,0,2.38.83,2.86,2.02l12.26,29.28c.12.36.24.83.24,1.19,0,1.55-1.19,2.86-2.74,2.98h0c-.6,0-1.19-.24-1.67-.6s-.83-.95-1.07-1.55l-10.71-24.99,1.31-.12Zm-9.16,19.28l2.74-5.71h13.45l.95,5.71h-17.14Z"/>
        <path id="Path_6" data-name="Path 6" d="m295.03,19.4h16.78c.83,0,1.55.24,2.14.83s.95,1.31.83,2.14c0,.71-.24,1.55-.83,2.02-.6.48-1.43.83-2.14.71h-14.04l.48-.83v9.76l-.36-.36h11.66c.83,0,1.55.24,2.14.83s.95,1.31.83,2.14c0,.71-.24,1.55-.83,2.02s-1.43.83-2.14.83h-11.54l.24-.36v10.12l-.36-.48h13.92c.83,0,1.55.24,2.14.83.6.48.83,1.31.83,2.02,0,.83-.24,1.55-.83,2.02-.6.6-1.43.83-2.14.83h-16.78c-1.67,0-2.98-1.31-3.09-2.98v-29.16c0-1.55,1.31-2.98,3.09-2.98q-.12,0,0,0"/>
        <path id="Path_7" data-name="Path 7" d="m323.71,19.28c.48,0,1.07.12,1.43.36.48.24.83.6,1.19.95l12.14,18.68-2.5-.12,12.5-18.57c.48-.83,1.43-1.31,2.5-1.31.83,0,1.55.36,2.14.83.6.6.95,1.31.95,2.14v28.92c0,1.67-1.19,2.98-2.86,3.09h-.24c-.83,0-1.67-.24-2.26-.83s-.95-1.31-.83-2.14v-23.56l1.9.48-10.23,15.59c-.36.36-.71.71-1.07.95s-.83.36-1.43.36c-.48,0-.95-.12-1.31-.36-.48-.24-.83-.6-1.07-.95l-9.52-15.11,1.31-2.62v25.23c0,.83-.24,1.55-.83,2.14s-1.31.95-2.14.83c-.83,0-1.55-.24-2.02-.83-.6-.6-.83-1.43-.83-2.14v-28.92c0-.83.36-1.55.95-2.14.48-.6,1.31-.95,2.14-.95"/>
        <path id="Path_8" data-name="Path 8" d="m375.84,19.4c1.79,0,3.45.48,4.88,1.55,1.55,1.07,2.86,2.38,3.69,4.05.95,1.79,1.43,3.69,1.43,5.71s-.48,3.93-1.43,5.59c-.83,1.67-2.14,2.98-3.69,4.05-1.43.95-3.09,1.55-4.88,1.55h-9.16l.48-.95v10.35c0,.83-.24,1.55-.83,2.14s-1.31.95-2.14.83c-.83,0-1.55-.24-2.02-.83-.6-.6-.83-1.43-.83-2.14v-28.92c0-1.67,1.31-2.98,2.98-3.09h11.54v.12Zm0,16.78c.71,0,1.31-.36,1.9-.83.6-.6,1.19-1.31,1.55-2.02.83-1.67.83-3.69,0-5.36-.36-.71-.83-1.43-1.55-2.02-.48-.48-1.19-.71-1.9-.83h-9.28l.6-.95v12.73l-.6-.83,9.28.12Z"/>
        <path id="Path_9" data-name="Path 9" d="m397.85,51.29c0,.83-.36,1.67-.95,2.14-.6.6-1.43.83-2.14.83-1.67.12-2.98-1.19-3.09-2.86v-29.04c0-.83.36-1.55.95-2.14s1.43-.95,2.26-.83c.83,0,1.55.36,2.14.83.6.6.95,1.31.95,2.14v28.92h-.12Z"/>
        <path id="Path_10" data-name="Path 10" d="m408.92,54.39c-.95,0-1.79-.36-2.5-.83s-1.07-1.31-1.07-2.14v-29.04c0-1.67,1.31-2.98,2.98-3.09h14.52c1.67,0,3.45.48,4.88,1.43,1.55.95,2.74,2.26,3.69,3.81.95,1.67,1.43,3.57,1.43,5.59,0,1.31-.24,2.5-.83,3.69-.48,1.19-1.19,2.26-2.14,3.21-.83.95-1.9,1.67-2.98,2.26v-1.19c1.67.83,2.98,2.26,3.81,3.93.36.83.6,1.67.6,2.5.12.83.24,1.55.24,2.14s.12,1.07.36,1.55c.12.48.48.83.83.95.71.36,1.19,1.07,1.43,1.9.24.83,0,1.55-.6,2.14-.36.48-.83.71-1.43.83-.6.12-1.19.12-1.67,0s-.95-.24-1.43-.48c-.6-.36-1.19-.95-1.67-1.43-.6-.71-1.07-1.67-1.43-2.62-.36-1.43-.6-2.86-.48-4.28,0-.6-.12-1.07-.36-1.55-.36-.95-1.19-1.79-2.26-2.02-.6-.24-1.31-.24-2.02-.24h-10.12l.71-1.19v10.83c0,.83-.24,1.55-.71,2.14-.36.83-1.07,1.19-1.79,1.19m1.9-17.97h11.66c.71,0,1.31-.36,1.79-.83.6-.6,1.07-1.43,1.43-2.26.36-.95.6-2.02.6-3.09,0-1.31-.36-2.62-1.19-3.69-.6-.83-1.55-1.43-2.5-1.43h-11.54l.6-1.55v14.16l-.83-1.31Z"/>
        <path id="Path_11" data-name="Path 11" d="m442.72,19.4h16.66c.83,0,1.55.24,2.14.83s.95,1.31.83,2.14c0,.71-.24,1.55-.83,2.02-.6.48-1.43.83-2.14.71h-14.04l.48-.83v9.76l-.36-.36h11.66c.83,0,1.55.24,2.14.83s.95,1.31.83,2.14c0,.71-.24,1.55-.83,2.02s-1.43.83-2.14.83h-11.54l.24-.36v10.12l-.36-.48h13.92c.83,0,1.55.24,2.14.83.6.48.83,1.31.83,2.02,0,.83-.24,1.55-.83,2.02-.6.6-1.43.83-2.14.83h-16.66c-1.67,0-2.98-1.31-3.09-2.98v-29.16c0-1.55,1.31-2.98,3.09-2.98q-.12,0,0,0"/>
        <path id="Path_12" data-name="Path 12" d="m130.44,82.47c-.12,0-.24,0-.36-.12-1.07-.48-2.02-1.31-2.86-2.26-.71-.95-1.31-2.02-1.67-3.09-.36-1.19-.6-2.38-.6-3.57,0-2.38.83-4.76,2.38-6.55.83-.95,1.67-1.79,2.74-2.38.12,0,.24-.12.24-.12.12,0,.24,0,.36.12.12.12.12.24.12.36,0,.24-.12.36-.24.48-.95.6-1.79,1.19-2.38,2.14-1.31,1.67-2.02,3.81-2.02,5.83,0,1.07.12,2.14.48,3.09.36,1.07.83,2.02,1.43,2.86.71.83,1.43,1.55,2.38,2.02.12.12.24.24.24.48,0,.12,0,.24-.12.36.12.36,0,.36-.12.36"/>
        <path id="Path_13" data-name="Path 13" d="m137.22,78.79c-.95,0-1.79-.12-2.62-.48s-1.55-.83-2.14-1.43q-.12-.12-.12-.24c0-.12-.12-.24-.12-.24,0-.12.12-.36.24-.48.12-.12.24-.24.48-.24.12,0,.36.12.48.24.48.6,1.07.95,1.79,1.31.71.36,1.43.48,2.14.48.6,0,1.19-.12,1.67-.36.48-.12.83-.48,1.19-.83.24-.36.48-.83.48-1.31,0-.6-.12-1.07-.48-1.43s-.83-.71-1.31-.95c-.6-.24-1.19-.48-1.79-.71-.6-.12-1.07-.36-1.55-.6s-.95-.48-1.31-.71c-.36-.36-.71-.71-.83-1.07-.24-.48-.36-1.07-.36-1.55,0-.71.24-1.31.6-1.9s.95-1.07,1.55-1.31c.71-.36,1.55-.48,2.38-.48s1.55.12,2.26.36,1.31.6,1.79,1.19c.12.12.24.36.24.6,0,.12-.12.36-.24.36-.12.12-.24.24-.48.24-.12,0-.24,0-.36-.12-.24-.36-.48-.6-.83-.71-.36-.24-.71-.36-1.19-.48-.95-.24-2.02-.24-2.98.12-.48.12-.83.48-1.19.83-.24.36-.48.83-.48,1.31s.12.95.48,1.43c.36.36.83.71,1.31.83.48.24,1.07.48,1.67.6s1.07.36,1.67.6l1.43.71c.36.36.71.71.95,1.19.24.6.36,1.19.36,1.79,0,.71-.24,1.31-.6,1.79-.36.6-.95.95-1.55,1.31-1.07.24-1.79.48-2.62.36"/>
        <path id="Path_14" data-name="Path 14" d="m145.19,64.62c.12,0,.24,0,.24.12.12,0,.24.12.24.24l5.47,8.33h-.6l5.59-8.21c.24-.24.6-.36.83-.12h.12c.12.12.12.24.12.48v12.73c0,.12-.12.36-.24.48-.12.12-.24.24-.48.24-.12,0-.36-.12-.48-.24-.12-.12-.24-.24-.24-.48v-11.54h.36l-5,7.62c0,.12-.12.12-.24.24-.12.12-.36.12-.6,0-.12,0-.12-.12-.24-.24l-5.12-7.74.36-.24v11.9c0,.12-.12.36-.12.48-.12.12-.24.24-.48.24-.12,0-.36,0-.48-.24-.12-.12-.12-.24-.12-.48v-12.97c0-.12.12-.36.12-.36.6-.12.71-.24.95-.24"/>
        <path id="Path_15" data-name="Path 15" d="m171.26,65.69c.12.12.24.24.24.36s0,.36-.12.48c-.12.12-.24.24-.36.24s-.24,0-.48-.12c-.48-.36-1.07-.6-1.67-.83s-1.19-.24-1.9-.24c-.83,0-1.55.12-2.26.48-.71.24-1.31.71-1.79,1.19-.48.6-.95,1.19-1.19,1.9s-.48,1.55-.48,2.38.12,1.67.48,2.5c.24.71.71,1.31,1.19,1.9.48.48,1.19.95,1.79,1.19.71.24,1.43.48,2.26.48.6,0,1.31-.12,1.9-.24.6-.24,1.07-.48,1.67-.71.12-.12.24-.12.48-.12.12,0,.24.12.36.24s.12.36.12.48-.12.36-.24.36c-.36.24-.71.48-1.19.6-.95.36-1.9.6-2.98.6-.95,0-1.9-.12-2.74-.48-1.67-.71-3.09-2.02-3.81-3.69-.36-.95-.6-1.9-.6-2.98,0-.95.12-1.9.6-2.86.36-.83.83-1.67,1.55-2.26,1.31-1.31,3.09-2.02,5-2.02.71,0,1.43.12,2.14.36.83.12,1.43.48,2.02.83"/>
        <path id="Path_16" data-name="Path 16" d="m173.28,82.47c-.12,0-.24-.12-.36-.12-.12-.12-.12-.24-.12-.36,0-.24.12-.36.24-.48.95-.48,1.79-1.19,2.38-2.14,1.31-1.67,2.02-3.81,2.02-5.83,0-1.07-.12-2.14-.48-3.09-.36-1.07-.83-2.02-1.43-2.86-.71-.83-1.55-1.55-2.5-2.02-.12-.12-.24-.24-.24-.48,0-.12,0-.24.12-.36s.24-.12.36-.12.24,0,.36.12c1.07.48,2.02,1.31,2.86,2.26.71.95,1.31,2.02,1.67,3.09.36,1.19.6,2.38.6,3.57s-.24,2.38-.6,3.45-.95,2.14-1.79,3.09c-.83.95-1.67,1.67-2.74,2.38-.12-.12-.24-.12-.36-.12"/>
        <path id="Path_17" data-name="Path 17" d="m192.32,64.62c.71,0,1.43.12,2.02.48.6.36,1.07.83,1.31,1.43.36.6.48,1.31.48,2.02s-.12,1.43-.48,2.02c-.36.6-.83,1.07-1.31,1.43-.6.36-1.31.6-2.02.6h-4.28l.12-.24v5.47c0,.36-.24.6-.6.6-.12,0-.36,0-.48-.24-.12-.12-.12-.24-.12-.48v-12.5c0-.12.12-.36.12-.48.12-.12.24-.24.48-.24h4.76v.12Zm0,6.9c.48,0,.95-.12,1.31-.36s.71-.6.95-1.07.36-.95.36-1.43-.12-1.07-.36-1.43c-.48-.83-1.31-1.43-2.26-1.31h-4.28l.12-.12v6.07l-.12-.12,4.28-.24Z"/>
        <path id="Path_18" data-name="Path 18" d="m199.22,78.67c-.12,0-.36,0-.48-.24-.12-.12-.12-.24-.12-.48v-8.93c0-.12.12-.36.24-.48.12-.12.24-.24.48-.24.12,0,.36.12.48.24.12.12.12.24.12.48v2.98h-.36c0-.48.12-.95.36-1.43s.48-.83.83-1.31c.36-.36.71-.71,1.19-.95s.95-.36,1.55-.36c.24,0,.48,0,.71.12.24.12.36.24.36.48,0,.12,0,.36-.12.48-.12.12-.24.12-.36.12s-.24,0-.36-.12-.36-.12-.6-.12c-.36,0-.83.12-1.07.36-.36.24-.71.48-1.07.83-.36.36-.6.83-.71,1.19-.12.48-.24.95-.24,1.43v4.88c-.24.83-.48,1.07-.83,1.07"/>
        <path id="Path_19" data-name="Path 19" d="m206.84,66.88c-.24,0-.48,0-.6-.24-.12-.12-.24-.36-.24-.6v-.24c0-.24.12-.36.24-.6.24-.12.36-.24.6-.24s.48,0,.6.24c.12.12.24.36.24.6v.24c0,.24-.12.36-.24.6-.12.24-.36.24-.6.24m.6,11.19c0,.36-.24.6-.6.6-.12,0-.36,0-.48-.24-.12-.12-.12-.24-.12-.48v-9.16c0-.12.12-.36.12-.48.24-.24.6-.24.83,0h0c.12.12.12.24.12.48l.12,9.28Z"/>
        <path id="Path_20" data-name="Path 20" d="m210.41,68.19c.12,0,.24,0,.36.12s.24.12.24.24l3.45,8.33-.24.12,3.57-8.45c.12-.24.36-.36.6-.36.12,0,.24,0,.36.12s.24.24.24.36v.36l-3.93,9.16c-.12.24-.36.36-.6.36-.12,0-.24,0-.36-.12s-.24-.12-.24-.24l-3.93-9.16v-.24c0-.12,0-.24.12-.36,0-.12.12-.24.36-.24"/>
        <path id="Path_21" data-name="Path 21" d="m229.45,68.43c.12,0,.36.12.48.24.12.12.12.24.12.48v9.04c0,.36-.24.6-.6.6-.12,0-.36,0-.48-.24-.12-.12-.12-.24-.12-.48v-2.38l.36-.12c0,.36-.12.83-.36,1.19s-.48.71-.83,1.07-.83.6-1.31.83c-.48.24-1.07.36-1.55.36-.83,0-1.67-.24-2.38-.71s-1.31-1.19-1.67-1.9c-.36-.83-.6-1.79-.6-2.74s.24-1.9.6-2.74c.36-.71.95-1.43,1.67-1.9,1.19-.71,2.62-.83,3.93-.36.48.24.95.48,1.31.83s.71.71.83,1.19c.24.48.36.95.36,1.43l-.48-.36v-2.74c0-.12,0-.36.12-.48.36-.12.48-.12.6-.12m-4.05,9.28c.71,0,1.31-.24,1.9-.6s.95-.95,1.31-1.55c.36-.71.48-1.43.48-2.14s-.12-1.43-.48-2.14c-.24-.6-.71-1.07-1.31-1.55-.6-.36-1.19-.6-1.9-.6s-1.31.12-1.9.48c-.6.36-.95.83-1.31,1.43-.36.71-.48,1.43-.48,2.14s.12,1.55.48,2.14c.24.6.71,1.19,1.31,1.55.48.71,1.19.83,1.9.83"/>
        <path id="Path_22" data-name="Path 22" d="m232.55,68.43h4.64c.12,0,.36.12.36.12.12.12.12.24.12.36,0,.36-.24.6-.48.6h-4.64c-.12,0-.36-.12-.36-.12-.12-.12-.12-.24-.12-.36s0-.36.12-.36c.12-.12.24-.24.36-.24m2.14-2.74c.12,0,.36.12.48.24.12.12.12.24.12.48v10c0,.24,0,.6.12.83.12.12.24.24.36.36.12,0,.36.12.48.12h.48c.12,0,.24,0,.36.12s.12.24.12.36c0,.24-.12.36-.36.48s-.48.24-.71.24h-.6c-.24,0-.48-.12-.71-.24-.24-.12-.48-.36-.6-.71-.24-.48-.24-.95-.24-1.43v-10.12c0-.12.12-.36.24-.48.12-.24.24-.24.48-.24"/>
        <path id="Path_23" data-name="Path 23" d="m244.57,78.79c-.95,0-1.9-.24-2.74-.71-.83-.48-1.43-1.07-1.79-1.79-.48-.83-.71-1.79-.71-2.74s.24-2.02.71-2.86c.36-.71.95-1.43,1.79-1.9.71-.48,1.43-.6,2.26-.6.6,0,1.19.12,1.67.36.6.24,1.07.48,1.43.95.48.48.83.95,1.07,1.55s.36,1.31.48,2.02c0,.12-.12.36-.24.36-.12.12-.24.12-.48.12h-7.97l-.24-1.07h7.85l-.24.24v-.36c0-.6-.24-1.19-.6-1.55-.71-.83-1.67-1.31-2.74-1.31-.48,0-.83.12-1.19.24-.48.12-.83.48-1.19.71-.36.36-.6.83-.83,1.31-.24.6-.36,1.19-.36,1.9s.12,1.43.48,2.14c.36.6.83,1.19,1.43,1.55.71.36,1.43.6,2.14.6.48,0,.83-.12,1.19-.24s.71-.36.95-.48c.24-.24.48-.48.71-.71.12-.12.24-.12.48-.24.12,0,.24,0,.36.12s.12.24.12.36-.12.36-.24.48c-.48.48-.95.95-1.55,1.19s-1.31.36-2.02.36"/>
        <path id="Path_24" data-name="Path 24" d="m264.68,77.48c.12,0,.36,0,.48.12.24.24.24.6,0,.83h0c-.12.12-.24.12-.48.12h-7.14c-.12,0-.36-.12-.48-.24-.12-.12-.12-.24-.12-.48v-12.62c0-.12.12-.36.24-.48.12-.12.24-.24.48-.24.12,0,.36.12.48.24.12.12.24.24.24.48v12.5l-.36-.36,6.66.12Z"/>
        <path id="Path_25" data-name="Path 25" d="m267.89,66.88c-.24,0-.48,0-.6-.24-.12-.12-.24-.36-.24-.6v-.24c0-.24.12-.36.24-.6.24-.12.36-.24.6-.24s.48,0,.6.24c.12.12.24.36.24.6v.24c0,.24-.12.36-.24.6-.24.24-.36.24-.6.24m.6,11.19c0,.36-.24.6-.6.6-.12,0-.36,0-.48-.24-.12-.12-.12-.24-.12-.48v-9.16c0-.12.12-.36.12-.48.24-.24.6-.24.83,0h0c.12.12.12.24.12.48l.12,9.28Z"/>
        <path id="Path_26" data-name="Path 26" d="m276.22,68.31c.71,0,1.55.24,2.14.6.6.48,1.07,1.19,1.19,1.9l-.24.12.12-.36c.24-.48.48-.83.83-1.19s.83-.6,1.43-.83c.48-.24,1.07-.36,1.55-.36.71,0,1.43.12,2.02.6.48.36.95.83,1.07,1.43.24.71.36,1.31.36,2.02v5.71c0,.12,0,.36-.12.48-.24.24-.6.24-.83,0-.12-.12-.12-.24-.12-.48v-5.59c0-.48-.12-1.07-.24-1.55-.12-.48-.48-.83-.83-1.07-.48-.24-.95-.48-1.55-.36-.6,0-1.07.12-1.55.36-.48.24-.95.6-1.19,1.07-.36.48-.48.95-.48,1.55v5.59c0,.12-.12.36-.12.48-.24.24-.6.24-.83,0h0c-.12-.12-.12-.24-.12-.48v-5.71c0-.48-.12-.95-.24-1.43-.12-.48-.48-.83-.83-1.07-.48-.24-.95-.48-1.43-.36-.6,0-1.07.12-1.55.36-.48.24-.83.6-1.19,1.07s-.48.95-.48,1.43v5.71c0,.36-.24.6-.6.6-.12,0-.36,0-.48-.24-.12-.12-.12-.24-.12-.48v-8.81c0-.12.12-.36.24-.48.12-.12.24-.24.48-.24.12,0,.36.12.48.24.12.12.12.24.12.48v1.9l-.6.71c0-.48.24-.83.36-1.19.24-.36.48-.71.83-1.07.36-.36.83-.6,1.19-.71.24-.24.71-.36,1.31-.36"/>
        <path id="Path_27" data-name="Path 27" d="m290.39,66.88c-.24,0-.48,0-.6-.24-.12-.12-.24-.36-.24-.6v-.24c0-.24.12-.36.24-.6.24-.12.36-.24.6-.24s.48,0,.6.24c.12.12.24.36.24.6v.24c0,.24-.12.36-.24.6-.24.24-.36.24-.6.24m.6,11.19c0,.36-.24.6-.6.6-.12,0-.36,0-.48-.24-.12-.12-.12-.24-.12-.48v-9.16c0-.12.12-.36.12-.48.24-.24.6-.24.83,0h0c.12.12.12.24.12.48l.12,9.28Z"/>
        <path id="Path_28" data-name="Path 28" d="m293.36,68.43h4.64c.12,0,.36.12.36.12.12.12.12.24.12.36,0,.36-.24.6-.48.6h-4.64c-.12,0-.36-.12-.36-.12-.12-.12-.12-.24-.12-.36s0-.36.12-.36c.12-.12.24-.24.36-.24m2.14-2.74c.12,0,.36.12.48.24.12.12.12.24.12.48v10c0,.24,0,.6.12.83.12.12.24.24.36.36.12,0,.36.12.48.12h.48c.12,0,.24,0,.36.12s.12.24.12.36c0,.24-.12.36-.36.48s-.48.24-.71.24h-.6c-.24,0-.48-.12-.71-.24-.24-.12-.48-.36-.6-.71-.24-.48-.24-.95-.24-1.43v-10.12c0-.12.12-.36.24-.48.12-.24.24-.24.48-.24"/>
        <path id="Path_29" data-name="Path 29" d="m305.38,78.79c-.95,0-1.9-.24-2.74-.71s-1.43-1.07-1.79-1.79c-.48-.83-.71-1.79-.71-2.74s.24-2.02.71-2.86c.36-.71.95-1.43,1.79-1.9.71-.48,1.43-.6,2.26-.6.6,0,1.19.12,1.67.36.6.24,1.07.48,1.43.95.48.48.83.95,1.07,1.55.24.6.36,1.31.48,2.02,0,.12-.12.36-.24.36-.12.12-.24.12-.48.12h-7.97l-.24-1.07h7.85l-.24.24v-.36c0-.6-.24-1.19-.6-1.55-.71-.83-1.67-1.31-2.74-1.31-.48,0-.83.12-1.19.24-.48.12-.83.48-1.19.71-.36.36-.6.83-.83,1.31-.24.6-.36,1.19-.36,1.9s.12,1.43.48,2.14c.36.6.83,1.19,1.43,1.55.71.36,1.43.6,2.14.6.48,0,.83-.12,1.19-.24s.71-.36.95-.48c.24-.24.48-.48.71-.71.12-.12.24-.12.48-.24.12,0,.24,0,.36.12.12.12.12.24.12.36s-.12.36-.24.48c-.48.48-.95.95-1.55,1.19s-1.31.48-2.02.36"/>
      </g>
      <path id="Path_31" data-name="Path 31" class="cls-1" d="m28.32,30.23c-4.64,4.64-4.64,12.14,0,16.78,2.26,2.26,5.24,3.45,8.33,3.45h20.95v26.78h-19.04C17.26,77.24,0,59.98,0,38.68S17.26,0,38.68,0h19.04v26.78h-21.06c-3.09,0-6.19,1.19-8.33,3.45"/>
      <path id="Path_32" data-name="Path 32" class="cls-1" d="m57.72,101.4v-24.87h19.99c7.14,0,12.85-5.71,12.85-12.85s-5.71-12.85-12.85-12.85h-19.99v-24.75h18.09c20.83-.12,37.73,16.66,37.85,37.49s-16.66,37.73-37.49,37.85h-18.45Z"/>
    </g>
  </g>
</svg>