<svg id="Layer_1" data-name="Layer 1" xmlns="http://www.w3.org/2000/svg" width="244.15" height="57.029" viewBox="0 0 244.15 57.029">
  <g id="Group_5" data-name="Group 5">
    <g id="Group_1" data-name="Group 1" transform="translate(94.925 0.245)">
      <path id="Path_1" data-name="Path 1" d="M304.486,40.776l10.6,10.733,1.177-1.167-4.547-4.6,9.973-9.973,9.976,9.976-4.55,4.6,1.181,1.164,10.6-10.733,10.869,10.739,1.167-1.177-4.428-4.375V42.736h-2v1.25l-5.618-5.555-6.056,6.129-4.2-4.2V37.237h-1.924v1.2l-5.021-5.021-5.021,5.021V37.234h-1.92v3.128l-4.2,4.2L304.5,38.431l-5.622,5.552V42.736h-2v3.227l-4.424,4.371,1.167,1.181Z" transform="translate(-290.38 -22.581)" fill="#6e6e6f"/>
      <path id="Path_2" data-name="Path 2" d="M323.3,62.255l-4.915-4.975-5.035,4.972.488.491,4.54-4.484,4.428,4.481Z" transform="translate(-304.349 -38.528)" fill="#6e6e6f"/>
      <path id="Path_3" data-name="Path 3" d="M322.8,4.033V4.04s.03,0,.086,0h.05c1.758-.056,20.145-.129,28.593,19.386,0,0-6.288-22.218-28.593-22.676V.74h-.139C300.488,1.2,294.2,23.419,294.2,23.419,302.647,3.9,321.035,3.977,322.793,4.03Z" transform="translate(-291.55 -0.74)" fill="#6e6e6f"/>
      <rect id="Rectangle_1" data-name="Rectangle 1" width="2.643" height="2.876" transform="translate(11.167 28.569)" fill="#f9ce00"/>
      <rect id="Rectangle_2" data-name="Rectangle 2" width="2.643" height="2.876" transform="translate(14.368 28.569)" fill="#f9ce00"/>
      <path id="Path_4" data-name="Path 4" d="M319.88,99.085q1.269-.363,2.643-.677V96.82H319.88Z" transform="translate(-308.713 -64.954)" fill="#f9ce00"/>
      <path id="Path_5" data-name="Path 5" d="M332.183,96.82H329.54v1.463c.856-.189,1.735-.362,2.643-.517Z" transform="translate(-315.169 -64.954)" fill="#f9ce00"/>
      <path id="Path_6" data-name="Path 6" d="M427.847,62.252l-5.031-4.972L417.9,62.255l.491.488,4.431-4.484,4.541,4.487Z" transform="translate(-374.223 -38.528)" fill="#6e6e6f"/>
      <path id="Path_7" data-name="Path 7" d="M317.592,98.14h0c-17.293,0-29.551,4.574-31.382,9.6,8.646-6.812,29.375-6.955,31.246-6.955h0s22.324-.182,31.382,6.955C347.014,102.727,334.812,98.163,317.592,98.14Z" transform="translate(-286.21 -65.836)" fill="#6e6e6f"/>
      <path id="Path_8" data-name="Path 8" d="M375.442,48.108l-4.869-4.865-.255-.222-5.088,5.088.511.507,4.594-4.594,4.6,4.6Z" transform="translate(-339.022 -28.997)" fill="#6e6e6f"/>
      <path id="Path_9" data-name="Path 9" d="M378.095,79.257V71.48H373.11v7.774h2.424v0Z" transform="translate(-344.289 -48.018)" fill="#3c787e"/>
      <rect id="Rectangle_3" data-name="Rectangle 3" width="2.643" height="2.876" transform="translate(48.817 28.573)" fill="#f9ce00"/>
      <rect id="Rectangle_4" data-name="Rectangle 4" width="2.643" height="2.876" transform="translate(45.613 28.573)" fill="#f9ce00"/>
      <path id="Path_10" data-name="Path 10" d="M436.043,96.82H433.4v1.589q1.373.313,2.643.677Z" transform="translate(-384.583 -64.954)" fill="#f9ce00"/>
      <path id="Path_11" data-name="Path 11" d="M423.74,97.765c.909.156,1.788.328,2.643.517V96.82H423.74Z" transform="translate(-378.127 -64.954)" fill="#f9ce00"/>
    </g>
    <g id="Group_2" data-name="Group 2" transform="translate(0 46.788)">
      <path id="Path_12" data-name="Path 12" d="M6.57,151.781v-3.907H1.821v3.907H0V142.12H1.821v4.073H6.567V142.12H8.374v9.661H6.567Z" transform="translate(0 -141.772)" fill="#6e6e6f"/>
      <path id="Path_13" data-name="Path 13" d="M36.168,153.825a3.539,3.539,0,1,1-3.559-3.545,3.442,3.442,0,0,1,3.562,3.545Zm-5.4,0a1.856,1.856,0,1,0,3.7,0,1.914,1.914,0,0,0-1.851-2.016,1.872,1.872,0,0,0-1.851,2.016Z" transform="translate(-19.442 -147.225)" fill="#6e6e6f"/>
      <path id="Path_14" data-name="Path 14" d="M58.447,157.248V153.6c0-.9-.471-1.711-1.393-1.711A1.547,1.547,0,0,0,55.6,153.6v3.645H53.92v-6.819h1.559l.123.829a1.97,1.97,0,0,1,1.794-.939,2.041,2.041,0,0,1,2.017,1.27,2.463,2.463,0,0,1,2.279-1.24c1.934,0,2.885,1.187,2.885,3.23v3.672H62.891V153.58c0-.9-.371-1.655-1.284-1.655a1.547,1.547,0,0,0-1.476,1.685v3.645H58.447Z" transform="translate(-36.037 -147.252)" fill="#6e6e6f"/>
      <path id="Path_15" data-name="Path 15" d="M92.038,154.279a1.811,1.811,0,0,0,2.03,1.449,2.815,2.815,0,0,0,1.821-.633l1.078,1.061a4.172,4.172,0,0,1-2.925,1.1,3.431,3.431,0,0,1-3.741-3.628,3.349,3.349,0,0,1,3.615-3.562c2.209,0,3.7,1.406,3.436,4.209Zm3.7-1.393a1.56,1.56,0,0,0-1.768-1.327,1.83,1.83,0,0,0-1.9,1.327Z" transform="translate(-60.351 -147.085)" fill="#6e6e6f"/>
      <path id="Path_16" data-name="Path 16" d="M117.138,142.12v9.648H115.47V142.12Z" transform="translate(-77.173 -141.772)" fill="#6e6e6f"/>
      <path id="Path_17" data-name="Path 17" d="M125.778,154.279c.109.842.842,1.449,2.03,1.449a2.815,2.815,0,0,0,1.821-.633l1.078,1.061a4.172,4.172,0,0,1-2.925,1.1,3.431,3.431,0,0,1-3.741-3.628,3.349,3.349,0,0,1,3.615-3.562c2.209,0,3.7,1.406,3.436,4.209Zm3.7-1.393a1.56,1.56,0,0,0-1.768-1.327,1.83,1.83,0,0,0-1.9,1.327Z" transform="translate(-82.901 -147.085)" fill="#6e6e6f"/>
      <path id="Path_18" data-name="Path 18" d="M152.9,152.1a2.3,2.3,0,0,0-1.685-.607c-.8,0-1.244.249-1.244.677s.4.69,1.27.746c1.284.083,2.912.371,2.912,2.179,0,1.2-.978,2.235-2.925,2.235a3.983,3.983,0,0,1-3.147-1.214l.829-1.2a3.741,3.741,0,0,0,2.345.952c.633.013,1.227-.318,1.227-.816,0-.471-.388-.663-1.353-.716-1.284-.1-2.816-.567-2.816-2.113s1.628-2.126,2.869-2.126a3.655,3.655,0,0,1,2.65.9l-.939,1.1Z" transform="translate(-98.967 -147.105)" fill="#6e6e6f"/>
      <path id="Path_19" data-name="Path 19" d="M173.336,152.1a2.3,2.3,0,0,0-1.685-.607c-.8,0-1.24.249-1.24.677s.4.69,1.27.746c1.284.083,2.912.371,2.912,2.179,0,1.2-.978,2.235-2.925,2.235a3.983,3.983,0,0,1-3.147-1.214l.829-1.2a3.741,3.741,0,0,0,2.345.952c.633.013,1.227-.318,1.227-.816,0-.471-.388-.663-1.353-.716-1.284-.1-2.816-.567-2.816-2.113s1.628-2.126,2.869-2.126a3.655,3.655,0,0,1,2.65.9l-.939,1.1Z" transform="translate(-112.628 -147.105)" fill="#6e6e6f"/>
      <path id="Path_20" data-name="Path 20" d="M198.89,151.741V142.08H200.7v9.661Z" transform="translate(-132.926 -141.745)" fill="#6e6e6f"/>
      <path id="Path_21" data-name="Path 21" d="M214.051,157.275v-3.562a1.623,1.623,0,0,0-1.642-1.821,1.765,1.765,0,0,0-1.738,1.9v3.479H209v-6.819h1.506l.109.925a3.067,3.067,0,0,1,2.235-1.022c1.6,0,2.885,1.2,2.885,3.34v3.575Z" transform="translate(-139.683 -147.279)" fill="#6e6e6f"/>
      <path id="Path_22" data-name="Path 22" d="M234.018,144.91v1.934H235.9v1.449h-1.89v2.939a.843.843,0,0,0,.882.965,1.953,1.953,0,0,0,.816-.206l.471,1.436a3.766,3.766,0,0,1-1.393.289,2.2,2.2,0,0,1-2.441-2.484v-2.939h-1.27v-1.449h1.27v-1.751l1.685-.179Z" transform="translate(-154.433 -143.636)" fill="#6e6e6f"/>
      <path id="Path_23" data-name="Path 23" d="M250.238,154.279c.109.842.842,1.449,2.03,1.449a2.815,2.815,0,0,0,1.821-.633l1.078,1.061a4.172,4.172,0,0,1-2.925,1.1,3.431,3.431,0,0,1-3.741-3.628,3.349,3.349,0,0,1,3.615-3.562c2.209,0,3.7,1.406,3.436,4.209h-5.313Zm3.7-1.393a1.56,1.56,0,0,0-1.768-1.327,1.83,1.83,0,0,0-1.9,1.327Z" transform="translate(-166.082 -147.085)" fill="#6e6e6f"/>
      <path id="Path_24" data-name="Path 24" d="M275.215,150.329l.123.786a2,2,0,0,1,1.917-.965,2.593,2.593,0,0,1,1.751.65l-.759,1.463a1.688,1.688,0,0,0-1.214-.441,1.57,1.57,0,0,0-1.7,1.725v3.589H273.65v-6.8h1.559Z" transform="translate(-182.891 -147.139)" fill="#6e6e6f"/>
      <path id="Path_25" data-name="Path 25" d="M298.9,150.643l-2.9,6.845h-1.821l-2.912-6.845H293.1l.939,2.249,1.048,2.869,1.035-2.842.939-2.279H298.9Z" transform="translate(-194.667 -147.466)" fill="#6e6e6f"/>
      <path id="Path_26" data-name="Path 26" d="M317.558,154.279c.109.842.842,1.449,2.03,1.449a2.815,2.815,0,0,0,1.821-.633l1.078,1.061a4.172,4.172,0,0,1-2.925,1.1,3.431,3.431,0,0,1-3.741-3.628,3.349,3.349,0,0,1,3.615-3.562c2.209,0,3.7,1.406,3.436,4.209Zm3.7-1.393a1.56,1.56,0,0,0-1.768-1.327,1.83,1.83,0,0,0-1.9,1.327Z" transform="translate(-211.074 -147.085)" fill="#6e6e6f"/>
      <path id="Path_27" data-name="Path 27" d="M345.921,157.275v-3.562a1.623,1.623,0,0,0-1.642-1.821,1.765,1.765,0,0,0-1.738,1.9v3.479H340.87v-6.819h1.506l.109.925a3.066,3.066,0,0,1,2.235-1.022c1.6,0,2.885,1.2,2.885,3.34v3.575Z" transform="translate(-227.816 -147.279)" fill="#6e6e6f"/>
      <path id="Path_28" data-name="Path 28" d="M365.872,144.91v1.934h1.877v1.449h-1.89v2.939a.843.843,0,0,0,.882.965,1.953,1.953,0,0,0,.816-.206l.468,1.436a3.766,3.766,0,0,1-1.393.289,2.2,2.2,0,0,1-2.441-2.484v-2.939h-1.27v-1.449h1.27v-1.751l1.685-.179Z" transform="translate(-242.553 -143.636)" fill="#6e6e6f"/>
      <path id="Path_29" data-name="Path 29" d="M382.8,142.93a.993.993,0,0,1-1.987,0A.993.993,0,0,1,382.8,142.93Zm-1.834,1.89v6.832h1.685v-6.832Z" transform="translate(-254.51 -141.656)" fill="#6e6e6f"/>
      <path id="Path_30" data-name="Path 30" d="M397.508,153.825a3.539,3.539,0,1,1-3.559-3.545,3.442,3.442,0,0,1,3.562,3.545Zm-5.4,0a1.856,1.856,0,1,0,3.7,0,1.914,1.914,0,0,0-1.851-2.016A1.872,1.872,0,0,0,392.112,153.825Z" transform="translate(-260.939 -147.225)" fill="#6e6e6f"/>
      <path id="Path_31" data-name="Path 31" d="M420.191,157.275v-3.562a1.623,1.623,0,0,0-1.642-1.821,1.765,1.765,0,0,0-1.738,1.9v3.479H415.14v-6.819h1.506l.109.925a3.066,3.066,0,0,1,2.235-1.022c1.6,0,2.885,1.2,2.885,3.34v3.575Z" transform="translate(-277.454 -147.279)" fill="#6e6e6f"/>
      <path id="Path_32" data-name="Path 32" d="M453.444,143.737a2.772,2.772,0,0,0-2.292-1.078c-1.353,0-2,.567-2,1.284,0,.842.995,1.078,2.153,1.214,2.016.249,3.89.773,3.89,3.078,0,2.152-1.9,3.078-4.056,3.078-1.973,0-3.492-.607-4.209-2.375l1.519-.786a2.756,2.756,0,0,0,2.72,1.532c1.174,0,2.222-.4,2.222-1.449,0-.912-.952-1.284-2.235-1.423-1.973-.235-3.794-.76-3.794-2.925,0-1.987,1.96-2.8,3.741-2.816a3.9,3.9,0,0,1,3.794,1.917l-1.449.746Z" transform="translate(-298.7 -141.07)" fill="#6e6e6f"/>
      <path id="Path_33" data-name="Path 33" d="M477.878,154.279c.109.842.842,1.449,2.03,1.449a2.815,2.815,0,0,0,1.821-.633l1.078,1.061a4.172,4.172,0,0,1-2.925,1.1,3.431,3.431,0,0,1-3.741-3.628,3.349,3.349,0,0,1,3.615-3.562c2.209,0,3.7,1.406,3.436,4.209Zm3.7-1.393a1.56,1.56,0,0,0-1.768-1.327,1.83,1.83,0,0,0-1.9,1.327Z" transform="translate(-318.222 -147.085)" fill="#6e6e6f"/>
      <path id="Path_34" data-name="Path 34" d="M502.856,150.329l.123.786a2,2,0,0,1,1.917-.965,2.593,2.593,0,0,1,1.751.65l-.759,1.463a1.688,1.688,0,0,0-1.214-.441,1.57,1.57,0,0,0-1.7,1.725v3.589H501.29v-6.8h1.559Z" transform="translate(-335.031 -147.139)" fill="#6e6e6f"/>
      <path id="Path_35" data-name="Path 35" d="M526.542,150.643l-2.9,6.845h-1.821l-2.912-6.845h1.834l.939,2.249,1.048,2.869,1.035-2.842.939-2.279h1.834Z" transform="translate(-346.807 -147.466)" fill="#6e6e6f"/>
      <path id="Path_36" data-name="Path 36" d="M545.907,142.93a.993.993,0,0,1-1.987,0A.993.993,0,0,1,545.907,142.93Zm-1.834,1.89v6.832h1.685v-6.832Z" transform="translate(-363.522 -141.656)" fill="#6e6e6f"/>
      <path id="Path_37" data-name="Path 37" d="M559.059,156.236a3.5,3.5,0,0,1-2.623,1.078,3.6,3.6,0,1,1,0-7.2,3.231,3.231,0,0,1,2.458,1.008l-1.061,1.118a2.068,2.068,0,0,0-1.366-.537,1.916,1.916,0,0,0-1.96,2.017,1.853,1.853,0,0,0,1.934,1.987,2.038,2.038,0,0,0,1.489-.567l1.131,1.1Z" transform="translate(-369.471 -147.112)" fill="#6e6e6f"/>
      <path id="Path_38" data-name="Path 38" d="M575.538,154.279c.109.842.842,1.449,2.03,1.449a2.815,2.815,0,0,0,1.821-.633l1.078,1.061a4.172,4.172,0,0,1-2.925,1.1,3.431,3.431,0,0,1-3.741-3.628,3.349,3.349,0,0,1,3.615-3.562c2.209,0,3.7,1.406,3.436,4.209h-5.313Zm3.7-1.393a1.56,1.56,0,0,0-1.768-1.327,1.83,1.83,0,0,0-1.9,1.327Z" transform="translate(-383.492 -147.085)" fill="#6e6e6f"/>
      <path id="Path_39" data-name="Path 39" d="M602.659,152.1a2.3,2.3,0,0,0-1.685-.607c-.8,0-1.244.249-1.244.677s.4.69,1.27.746c1.284.083,2.912.371,2.912,2.179,0,1.2-.979,2.235-2.925,2.235a3.983,3.983,0,0,1-3.147-1.214l.829-1.2a3.741,3.741,0,0,0,2.345.952c.634.013,1.227-.318,1.227-.816,0-.471-.388-.663-1.353-.716-1.284-.1-2.816-.567-2.816-2.113s1.629-2.126,2.869-2.126a3.655,3.655,0,0,1,2.65.9l-.939,1.1Z" transform="translate(-399.559 -147.105)" fill="#6e6e6f"/>
      <path id="Path_40" data-name="Path 40" d="M633.938,153.825a3.539,3.539,0,1,1-3.559-3.545,3.442,3.442,0,0,1,3.562,3.545Zm-5.4,0a1.856,1.856,0,1,0,3.7,0,1.914,1.914,0,0,0-1.851-2.016A1.872,1.872,0,0,0,628.542,153.825Z" transform="translate(-418.954 -147.225)" fill="#6e6e6f"/>
      <path id="Path_41" data-name="Path 41" d="M650.79,151.414v-5.23h-1.27v-1.476h1.27v-.454a2.463,2.463,0,0,1,2.594-2.663,3.293,3.293,0,0,1,1.768.551l-.62,1.257a1.866,1.866,0,0,0-1.035-.358c-.58,0-1.022.388-1.022,1.214v.454h2v1.476h-2v5.23Z" transform="translate(-434.099 -141.418)" fill="#6e6e6f"/>
      <path id="Path_42" data-name="Path 42" d="M685.873,146.578a4.962,4.962,0,1,1-9.923.013,4.963,4.963,0,1,1,9.923-.013Zm-8.129.04a3.17,3.17,0,1,0,6.335-.013,3.179,3.179,0,1,0-6.335.013Z" transform="translate(-451.763 -141.357)" fill="#6e6e6f"/>
      <path id="Path_43" data-name="Path 43" d="M717.862,150.136a5.1,5.1,0,0,1-3.672,1.436,4.749,4.749,0,0,1-5.121-4.982,4.861,4.861,0,0,1,5.121-5.091,4.985,4.985,0,0,1,3.545,1.476l-1.214,1.174a3.318,3.318,0,0,0-2.332-.912,3.168,3.168,0,0,0-3.327,3.353,3.1,3.1,0,0,0,3.327,3.27,3.555,3.555,0,0,0,2.428-.978l1.244,1.257Z" transform="translate(-473.898 -141.357)" fill="#6e6e6f"/>
    </g>
    <g id="Group_3" data-name="Group 3" transform="translate(162.73 0.68)">
      <path id="Path_44" data-name="Path 44" d="M531.5,22.958c-.113,10.282-6.421,20.566-20.4,20.566S490.65,33.468,490.65,23.014,497.353,2.05,511.1,2.05,531.614,12.56,531.5,22.958Zm-33.461.169c.169,6.534,3.691,13.522,13.068,13.522S524,29.6,524.118,23.071c.113-6.7-3.635-14.2-13.011-14.2S497.87,16.424,498.039,23.13Z" transform="translate(-490.65 -2.05)" fill="#3c787e"/>
      <path id="Path_45" data-name="Path 45" d="M663.207,37.617a20.957,20.957,0,0,1-15.11,5.907c-14.772,0-21.021-10.169-21.077-20.51-.056-10.4,6.7-20.964,21.077-20.964a20.518,20.518,0,0,1,14.6,6.079l-5,4.829a13.661,13.661,0,0,0-9.6-3.751c-9.6,0-13.747,7.157-13.691,13.8.056,6.59,3.864,13.465,13.691,13.465a14.642,14.642,0,0,0,10-4.033l5.114,5.171Z" transform="translate(-581.79 -2.05)" fill="#3c787e"/>
    </g>
    <g id="Group_4" data-name="Group 4" transform="translate(0.411)">
      <path id="Path_46" data-name="Path 46" d="M28.284,44.05V27.971H8.739V44.05H1.24V4.28h7.5V21.039H28.284V4.28h7.442V44.05Z" transform="translate(-1.24 -2.86)" fill="#3c787e"/>
      <path id="Path_47" data-name="Path 47" d="M126.63,43.88V4.11h7.442V43.88H126.63Z" transform="translate(-85.043 -2.747)" fill="#3c787e"/>
      <path id="Path_48" data-name="Path 48" d="M193.7,10.965c-1.363-2.272-5.114-4.431-9.432-4.431-5.569,0-8.238,2.328-8.238,5.283,0,3.466,4.089,4.431,8.862,5,8.295,1.022,16.023,3.181,16.023,12.669,0,8.862-7.84,12.669-16.7,12.669-8.126,0-14.374-2.5-17.329-9.771l6.249-3.237c1.761,4.375,6.365,6.3,11.194,6.3s9.147-1.648,9.147-5.967c0-3.751-3.92-5.283-9.2-5.851-8.126-.965-15.625-3.124-15.625-12.043,0-8.182,8.069-11.535,15.4-11.592,6.192,0,12.613,1.761,15.625,7.9L193.7,10.965Z" transform="translate(-111.944)" fill="#3c787e"/>
    </g>
  </g>
</svg>
