<svg id="Announcement_Management" data-name="Announcement Management" xmlns="http://www.w3.org/2000/svg" width="62.356" height="62.356" viewBox="0 0 62.356 62.356">
  <path id="Path_67" data-name="Path 67" d="M58.4,25.637H57.051V12.971a2.743,2.743,0,0,0-2.727-2.74L52.105,8.012a3.963,3.963,0,0,0-5.6,0L43.9,10.618A23.942,23.942,0,0,0,36.72,7.641V3.958A3.963,3.963,0,0,0,32.761,0H29.595a3.963,3.963,0,0,0-3.958,3.958V7.641a24.109,24.109,0,0,0-2.524.74.913.913,0,0,0,.609,1.722A22.22,22.22,0,0,1,26.36,9.35a1.394,1.394,0,0,0,1.1-1.368V3.958a2.134,2.134,0,0,1,2.131-2.131h3.167a2.134,2.134,0,0,1,2.131,2.131V7.982A1.394,1.394,0,0,0,36,9.35,22.132,22.132,0,0,1,43.2,12.338a1.408,1.408,0,0,0,.761.225,1.392,1.392,0,0,0,.987-.412L47.8,9.3a2.134,2.134,0,0,1,3.014,0l1.647,1.647a2.733,2.733,0,0,0-.891,2.02v.759a32.417,32.417,0,0,1-6.086,5.14C34.18,5.679,12.3,13.787,12.306,31.179,12.3,48.5,34.035,56.646,45.391,43.595A34.728,34.728,0,0,1,51.57,48.64v.746a2.733,2.733,0,0,0,.891,2.02l-1.647,1.647a2.132,2.132,0,0,1-3.014,0l-2.847-2.847a1.394,1.394,0,0,0-1.748-.187A22.134,22.134,0,0,1,36,53.006a1.394,1.394,0,0,0-1.1,1.368V58.4a2.134,2.134,0,0,1-2.131,2.131H29.595A2.134,2.134,0,0,1,27.464,58.4V54.374a1.394,1.394,0,0,0-1.1-1.368,22.134,22.134,0,0,1-7.207-2.988,1.393,1.393,0,0,0-1.748.187l-2.847,2.847a2.134,2.134,0,0,1-3.014,0L9.3,50.814a2.134,2.134,0,0,1,0-3.014l2.847-2.847a1.394,1.394,0,0,0,.187-1.748A22.134,22.134,0,0,1,9.35,36a1.394,1.394,0,0,0-1.368-1.1H3.958a2.134,2.134,0,0,1-2.131-2.131V29.6a2.134,2.134,0,0,1,2.131-2.131H7.982a1.394,1.394,0,0,0,1.368-1.1,22.132,22.132,0,0,1,2.988-7.207,1.394,1.394,0,0,0-.187-1.748L9.3,14.557a2.134,2.134,0,0,1,0-3.014L11.542,9.3a2.134,2.134,0,0,1,3.014,0L17.4,12.151a1.394,1.394,0,0,0,1.748.187c.289-.185.586-.365.882-.536a.913.913,0,0,0-.913-1.583c-.223.129-.447.262-.667.4L15.849,8.012a3.963,3.963,0,0,0-5.6,0L8.012,10.251a3.963,3.963,0,0,0,0,5.6l2.606,2.606a23.942,23.942,0,0,0-2.977,7.182H3.958A3.963,3.963,0,0,0,0,29.595v3.167A3.963,3.963,0,0,0,3.958,36.72H7.641A23.943,23.943,0,0,0,10.618,43.9L8.012,46.508a3.963,3.963,0,0,0,0,5.6l2.239,2.239a3.963,3.963,0,0,0,5.6,0l2.606-2.606a23.946,23.946,0,0,0,7.182,2.977V58.4a3.963,3.963,0,0,0,3.958,3.958h3.167A3.963,3.963,0,0,0,36.72,58.4V54.715A23.943,23.943,0,0,0,43.9,51.738l2.606,2.606a3.963,3.963,0,0,0,5.6,0l2.219-2.219a2.743,2.743,0,0,0,2.727-2.74V47.411a.913.913,0,0,0-1.827,0v1.975a.913.913,0,0,1-1.827,0V12.971a.913.913,0,0,1,1.827,0V43.064a.913.913,0,1,0,1.827,0V36.72H58.4a3.963,3.963,0,0,0,3.958-3.958V29.595A3.963,3.963,0,0,0,58.4,25.637ZM14.133,31.178C14.053,15.645,33.718,8.2,43.927,19.865a45.061,45.061,0,0,1-10.476,4.63,2.729,2.729,0,0,0-2.508-1.659H26.055c-8.766.077-11.481,11.79-3.806,15.763v7.094a17.05,17.05,0,0,1-8.117-14.514ZM35.489,38.6a2.751,2.751,0,0,1-4.105,2.7V39.485a2.733,2.733,0,0,0,2.055-1.6Q34.5,38.232,35.489,38.6ZM31.84,36.8a.9.9,0,0,1-.9.9H26.055a6.516,6.516,0,0,1,0-13.032h4.887a.9.9,0,0,1,.9.9Zm-5.785,2.725h3.5v8.625a16.911,16.911,0,0,1-5.481-1.474v-7.39a8.323,8.323,0,0,0,1.979.239Zm5.329,8.7V43.289a4.592,4.592,0,0,0,5.934-3.962,49.511,49.511,0,0,1,6.5,3.281,16.992,16.992,0,0,1-12.439,5.614Zm2.283-12.183v-9.7c8.9-2.837,13.047-5.627,17.9-9.976v29.7A47.778,47.778,0,0,0,33.667,36.038ZM60.53,32.761A2.134,2.134,0,0,1,58.4,34.893H57.051V27.464H58.4a2.134,2.134,0,0,1,2.131,2.131Z"/>
</svg>
