<svg xmlns="http://www.w3.org/2000/svg" width="61.325" height="65.418" viewBox="0 0 61.325 65.418">
  <g id="Brand_Management" data-name="Brand Management" transform="translate(-16.021)">
    <path id="Path_77" data-name="Path 77" d="M68.22,43.444l4.919,1.123a1.023,1.023,0,0,0,1.148-.552,30.565,30.565,0,0,0,3.058-13.4,1.022,1.022,0,0,0-.795-1L71.631,28.5a24.874,24.874,0,0,0-1.526-6.7l3.942-3.144a1.022,1.022,0,0,0,.284-1.242,30.564,30.564,0,0,0-8.57-10.746,1.022,1.022,0,0,0-1.274,0L60.539,9.81a24.865,24.865,0,0,0-6.19-2.985V1.779a1.022,1.022,0,0,0-.794-1,30.561,30.561,0,0,0-13.745,0,1.022,1.022,0,0,0-.794,1V6.825a24.873,24.873,0,0,0-6.19,2.985L28.879,6.661a1.022,1.022,0,0,0-1.274,0,30.563,30.563,0,0,0-8.57,10.746,1.022,1.022,0,0,0,.284,1.242l3.942,3.144a24.873,24.873,0,0,0-1.526,6.7l-4.92,1.123a1.022,1.022,0,0,0-.795,1,30.561,30.561,0,0,0,3.058,13.4,1.022,1.022,0,0,0,1.148.552l4.919-1.123a25.051,25.051,0,0,0,4.288,5.371l-2.191,4.549a1.022,1.022,0,0,0,.283,1.242,31.037,31.037,0,0,0,4.069,2.754A1.022,1.022,0,1,0,32.6,55.581a28.919,28.919,0,0,1-3.158-2.074L31.6,49.02a1.022,1.022,0,0,0-.24-1.206,23.031,23.031,0,0,1-4.814-6.03,1.023,1.023,0,0,0-1.122-.5L20.578,42.39a28.46,28.46,0,0,1-2.5-10.962l4.853-1.108a1.022,1.022,0,0,0,.793-.94,22.854,22.854,0,0,1,1.713-7.523,1.022,1.022,0,0,0-.307-1.191l-3.888-3.1a28.462,28.462,0,0,1,7.01-8.791l3.895,3.106a1.022,1.022,0,0,0,1.23.034,22.851,22.851,0,0,1,6.947-3.349,1.022,1.022,0,0,0,.74-.982V2.605a28.459,28.459,0,0,1,11.244,0V7.582a1.022,1.022,0,0,0,.74.982,22.848,22.848,0,0,1,6.947,3.349,1.022,1.022,0,0,0,1.23-.034l3.895-3.106a28.46,28.46,0,0,1,7.01,8.791l-3.888,3.1a1.022,1.022,0,0,0-.307,1.191,22.85,22.85,0,0,1,1.713,7.523,1.022,1.022,0,0,0,.793.94l4.853,1.108a28.463,28.463,0,0,1-2.5,10.962l-4.851-1.107a1.023,1.023,0,0,0-1.122.5A23.034,23.034,0,0,1,62,47.814a1.022,1.022,0,0,0-.24,1.206l2.161,4.487a28.888,28.888,0,0,1-3.158,2.074,1.022,1.022,0,1,0,1.007,1.779,31.053,31.053,0,0,0,4.069-2.754,1.022,1.022,0,0,0,.283-1.242l-2.191-4.549a25.059,25.059,0,0,0,4.287-5.371Z"/>
    <path id="Path_78" data-name="Path 78" d="M139.329,130.485A18.4,18.4,0,0,0,130.394,96h-.2a18.4,18.4,0,0,0-8.721,34.487.486.486,0,0,1,.238.431v2.008a4.1,4.1,0,0,0-3.066,3.959v4.089a4.093,4.093,0,0,0,4.089,4.089h1.125a5.12,5.12,0,0,0,5.008,4.089h3.066a5.12,5.12,0,0,0,5.008-4.089h1.125a4.093,4.093,0,0,0,4.089-4.089v-4.089a4.1,4.1,0,0,0-3.066-3.959v-2.009A.49.49,0,0,1,139.329,130.485ZM114.044,114.4a16.408,16.408,0,0,1,16.172-16.354h.178a16.355,16.355,0,0,1,7.942,30.655,2.535,2.535,0,0,0-1.293,2.219v1.88H123.755v-1.879a2.531,2.531,0,0,0-1.289-2.218,16.377,16.377,0,0,1-8.422-14.3Zm26.065,22.488v4.089a2.047,2.047,0,0,1-2.044,2.044h-2.044A1.022,1.022,0,0,0,135,144.042a3.07,3.07,0,0,1-3.066,3.066h-3.066a3.072,3.072,0,0,1-2.891-2.044h3.913a1.022,1.022,0,1,0,0-2.044h-7.155a2.047,2.047,0,0,1-2.044-2.044v-4.089a2.047,2.047,0,0,1,2.044-2.044h15.332A2.047,2.047,0,0,1,140.109,136.887Z" transform="translate(-83.716 -83.734)"/>
    <path id="Path_79" data-name="Path 79" d="M168.968,169.5a2.459,2.459,0,0,0,2.606.188l4.38-2.3,4.38,2.3a2.475,2.475,0,0,0,3.591-2.609l-.837-4.877,3.543-3.454a2.475,2.475,0,0,0-1.372-4.221l-4.9-.712-2.19-4.437a2.475,2.475,0,0,0-4.438,0l-2.19,4.437-4.9.712a2.475,2.475,0,0,0-1.372,4.221l3.543,3.454-.836,4.877a2.459,2.459,0,0,0,.985,2.42ZM166.7,157.285a.43.43,0,0,1,.239-.734l5.429-.789a1.022,1.022,0,0,0,.77-.559l2.428-4.919a.43.43,0,0,1,.772,0h0l2.428,4.919a1.022,1.022,0,0,0,.77.559l5.429.789a.43.43,0,0,1,.239.734l-3.928,3.829a1.022,1.022,0,0,0-.294.9l.927,5.407a.43.43,0,0,1-.624.454l-4.856-2.553a1.022,1.022,0,0,0-.951,0l-4.855,2.553a.43.43,0,0,1-.624-.454l.927-5.407a1.022,1.022,0,0,0-.294-.9Z" transform="translate(-129.532 -129.089)"/>
  </g>
</svg>
