<svg id="Dashbord" xmlns="http://www.w3.org/2000/svg" xmlns:xlink="http://www.w3.org/1999/xlink" width="60.835" height="60.835" viewBox="0 0 60.835 60.835">
  <defs>
    <clipPath id="clip-path">
      <rect id="Rectangle_56" data-name="Rectangle 56" width="60.835" height="60.835" fill="none"/>
    </clipPath>
  </defs>
  <g id="Group_144" data-name="Group 144" clip-path="url(#clip-path)">
    <path id="Path_84" data-name="Path 84" d="M3.945,19.512A3.95,3.95,0,0,1,0,15.566V3.944A3.949,3.949,0,0,1,3.945,0h19.37A3.949,3.949,0,0,1,27.26,3.944V15.566a3.95,3.95,0,0,1-3.945,3.946Zm0-16.788a1.222,1.222,0,0,0-1.221,1.22V15.566a1.222,1.222,0,0,0,1.221,1.221h19.37a1.222,1.222,0,0,0,1.221-1.221V3.944a1.222,1.222,0,0,0-1.221-1.22Z"/>
    <path id="Path_85" data-name="Path 85" d="M3.945,79.95A3.95,3.95,0,0,1,0,76V48.887a3.95,3.95,0,0,1,3.945-3.945h19.37a3.95,3.95,0,0,1,3.945,3.945V76a3.95,3.95,0,0,1-3.945,3.946Zm0-32.284a1.222,1.222,0,0,0-1.221,1.221V76a1.222,1.222,0,0,0,1.221,1.221h19.37A1.222,1.222,0,0,0,24.536,76V48.887a1.222,1.222,0,0,0-1.221-1.221Z" transform="translate(0 -19.116)"/>
    <path id="Path_86" data-name="Path 86" d="M62.37,91.42a3.95,3.95,0,0,1-3.946-3.945V75.853a3.95,3.95,0,0,1,3.946-3.946H81.74a3.949,3.949,0,0,1,3.944,3.946V87.475A3.949,3.949,0,0,1,81.74,91.42Zm0-16.788a1.222,1.222,0,0,0-1.221,1.221V87.475a1.222,1.222,0,0,0,1.221,1.22H81.74a1.221,1.221,0,0,0,1.22-1.22V75.853a1.222,1.222,0,0,0-1.22-1.221Z" transform="translate(-24.85 -30.585)"/>
    <path id="Path_87" data-name="Path 87" d="M62.37,35.008a3.95,3.95,0,0,1-3.946-3.946V3.944A3.949,3.949,0,0,1,62.37,0H81.74a3.949,3.949,0,0,1,3.944,3.944V31.063a3.949,3.949,0,0,1-3.944,3.946Zm0-32.284a1.222,1.222,0,0,0-1.221,1.22V31.063a1.222,1.222,0,0,0,1.221,1.221H81.74a1.222,1.222,0,0,0,1.22-1.221V3.944a1.221,1.221,0,0,0-1.22-1.22Z" transform="translate(-24.85)"/>
  </g>
</svg>
