<svg id="Event_Management" data-name="Event Management" xmlns="http://www.w3.org/2000/svg" xmlns:xlink="http://www.w3.org/1999/xlink" width="62.066" height="60.99" viewBox="0 0 62.066 60.99">
  <defs>
    <clipPath id="clip-path">
      <rect id="Rectangle_53" data-name="Rectangle 53" width="62.066" height="60.99" fill="none"/>
    </clipPath>
  </defs>
  <g id="Group_136" data-name="Group 136" clip-path="url(#clip-path)">
    <path id="Path_64" data-name="Path 64" d="M11.375,17.757H5.751a.974.974,0,0,0-.974.973v5.627a.974.974,0,0,0,.974.974h5.623a.974.974,0,0,0,.974-.974V18.73a.974.974,0,0,0-.974-.973M10.4,23.38H6.725V19.7H10.4Zm10.183-5.623H14.96a.973.973,0,0,0-.973.973v5.627a.974.974,0,0,0,.973.974h5.624a.974.974,0,0,0,.974-.974V18.73a.974.974,0,0,0-.974-.973M19.61,23.38H15.934V19.7H19.61Zm4.559,1.947h5.622a.974.974,0,0,0,.974-.97V18.73a.973.973,0,0,0-.973-.973H24.169a.974.974,0,0,0-.974.973v5.627a.974.974,0,0,0,.974.97m.974-5.624h3.676V23.38H25.143ZM11.375,27.629H5.751a.974.974,0,0,0-.974.974v5.623a.974.974,0,0,0,.974.974h5.623a.974.974,0,0,0,.974-.974V28.6a.974.974,0,0,0-.974-.974M10.4,33.254H6.725V29.576H10.4ZM20.584,27.63H14.96a.974.974,0,0,0-.973.974v5.622a.974.974,0,0,0,.973.974h5.624a.974.974,0,0,0,.974-.974V28.6a.974.974,0,0,0-.974-.974Zm-.974,5.623H15.934V29.576H19.61ZM11.375,37.5H5.751a.974.974,0,0,0-.974.974V44.1a.974.974,0,0,0,.974.974h5.623a.974.974,0,0,0,.974-.974V38.475a.974.974,0,0,0-.974-.974M10.4,43.124H6.725V39.448H10.4ZM20.584,37.5H14.96a.974.974,0,0,0-.973.974V44.1a.974.974,0,0,0,.973.974h5.624a.974.974,0,0,0,.974-.974V38.475a.974.974,0,0,0-.974-.974m-.974,5.623H15.934V39.448H19.61Zm27.639-7.341a2.6,2.6,0,0,0-1.849.765l-4.993,4.993L39.3,40.15A2.612,2.612,0,0,0,35.215,43.4l2.845,3.583a2.609,2.609,0,0,0,1.9,1.082c.077.007.154.01.231.01a2.6,2.6,0,0,0,1.846-.766L49.1,40.247a2.615,2.615,0,0,0-1.849-4.464Zm.472,3.087-7.063,7.063a.668.668,0,0,1-.945,0,.644.644,0,0,1-.077-.091c-.012-.017-.024-.032-.037-.048l-2.862-3.6a.665.665,0,0,1,1.041-.828l1.782,2.243a.974.974,0,0,0,1.37.153.953.953,0,0,0,.079-.07l5.764-5.764a.668.668,0,0,1,.945.945ZM42.63,29.747A11.808,11.808,0,1,0,54.439,41.555,11.808,11.808,0,0,0,42.63,29.747m0,21.67a9.862,9.862,0,1,1,9.862-9.862,9.861,9.861,0,0,1-9.862,9.862M61.092,37.5H58.779A16.421,16.421,0,0,0,56.917,33l1.632-1.636a.975.975,0,0,0,0-1.378h0l-4.357-4.357a.988.988,0,0,0-.234-.172V6.688a2.638,2.638,0,0,0-2.635-2.635H48.882V2.014A2.016,2.016,0,0,0,46.869,0H44.692a2.016,2.016,0,0,0-2.014,2.014V4.053H36.349V2.014A2.015,2.015,0,0,0,34.336,0H32.158a2.015,2.015,0,0,0-2.013,2.014V4.053H23.816V2.014A2.015,2.015,0,0,0,21.8,0H19.626a2.016,2.016,0,0,0-2.014,2.014V4.053H11.284V2.014A2.015,2.015,0,0,0,9.271,0H7.093A2.015,2.015,0,0,0,5.08,2.014V4.053H2.636A2.638,2.638,0,0,0,0,6.688V47.725A2.638,2.638,0,0,0,2.635,50.36H28.091L26.712,51.74a.973.973,0,0,0,0,1.376l0,0,4.356,4.357a.973.973,0,0,0,1.376,0l0,0,1.636-1.636a16.468,16.468,0,0,0,4.5,1.862v2.312a.973.973,0,0,0,.97.976h6.162a.974.974,0,0,0,.976-.972V57.7a16.472,16.472,0,0,0,4.5-1.862l1.636,1.636a.972.972,0,0,0,1.375,0l0,0,4.349-4.358a.976.976,0,0,0,0-1.379L56.912,50.1a16.472,16.472,0,0,0,1.862-4.5h2.312a.974.974,0,0,0,.979-.968V38.475a.974.974,0,0,0-.974-.974h0M44.625,2.014a.069.069,0,0,1,.069-.069h2.177a.069.069,0,0,1,.069.069V8.039a.069.069,0,0,1-.069.069h-2.18a.069.069,0,0,1-.069-.069Zm-12.533,0a.069.069,0,0,1,.069-.069h2.175a.069.069,0,0,1,.069.069V8.039a.069.069,0,0,1-.069.069H32.158a.069.069,0,0,1-.069-.069Zm-12.532,0a.069.069,0,0,1,.069-.069h2.177a.069.069,0,0,1,.069.069V8.039a.069.069,0,0,1-.069.069h-2.18a.069.069,0,0,1-.069-.069Zm-12.533,0A.069.069,0,0,1,7.1,1.945H9.273a.069.069,0,0,1,.066.069V8.039a.069.069,0,0,1-.066.069H7.093a.069.069,0,0,1-.069-.069ZM2.636,6H5.08V8.039a2.016,2.016,0,0,0,2.013,2.013H9.271a2.016,2.016,0,0,0,2.013-2.013V6h6.329V8.039a2.015,2.015,0,0,0,2.014,2.013H21.8a2.016,2.016,0,0,0,2.013-2.013V6h6.329V8.039a2.016,2.016,0,0,0,2.013,2.013h2.178a2.016,2.016,0,0,0,2.013-2.013V6h6.329V8.039a2.015,2.015,0,0,0,2.014,2.013h2.177a2.015,2.015,0,0,0,2.014-2.013V6h2.443a.69.69,0,0,1,.69.69v5.78H1.947V6.688A.689.689,0,0,1,2.636,6m-.69,41.726V14.417H52.013V26.438l-.832.832a16.42,16.42,0,0,0-4.5-1.862V25.33h1.526a.974.974,0,0,0,.975-.972V18.73a.974.974,0,0,0-.974-.973H42.588a.974.974,0,0,0-.974.973v3.39H39.975V18.73A.974.974,0,0,0,39,17.757H33.378a.974.974,0,0,0-.974.973v5.627a.974.974,0,0,0,.974.97h5.2v.079a16.42,16.42,0,0,0-4.5,1.862l-1.636-1.636a.974.974,0,0,0-1.377,0l0,0-2,2h-4.9a.974.974,0,0,0-.974.974v5.625a.974.974,0,0,0,.974.974H27.24a16.458,16.458,0,0,0-.759,2.3H24.169a.974.974,0,0,0-.974.974v6.161a.974.974,0,0,0,.974.974h2.312a16.406,16.406,0,0,0,.977,2.8H2.636a.689.689,0,0,1-.688-.688Zm43.765-25.6H43.561V19.707h3.678v3.676h-.552V23.1a.974.974,0,0,0-.971-.977h0m-7.683-2.414v3.676H34.352V19.7ZM26.71,31.368,28.343,33c-.049.082-.1.166-.143.248H25.143V29.576h1.982l-.414.414a.973.973,0,0,0,0,1.376l0,0ZM60.118,43.662H58a.975.975,0,0,0-.955.783A14.563,14.563,0,0,1,54.866,49.7a.972.972,0,0,0,.121,1.228l1.5,1.5-2.98,2.981-1.5-1.5a.973.973,0,0,0-1.229-.121,14.575,14.575,0,0,1-5.258,2.179.973.973,0,0,0-.783.954v2.121H40.524V56.925a.973.973,0,0,0-.783-.954,14.567,14.567,0,0,1-5.259-2.18.974.974,0,0,0-1.229.121l-1.5,1.5-2.98-2.981,1.5-1.5A.974.974,0,0,0,30.4,49.7a14.542,14.542,0,0,1-2.179-5.258.975.975,0,0,0-.955-.783H25.143V39.448h2.118a.974.974,0,0,0,.955-.783A14.551,14.551,0,0,1,30.4,33.407a.975.975,0,0,0-.121-1.229l-1.5-1.5,2.98-2.98,1.5,1.5a.973.973,0,0,0,1.227.125,14.547,14.547,0,0,1,5.258-2.179.975.975,0,0,0,.783-.955V24.067h4.214v2.118a.973.973,0,0,0,.783.955,14.552,14.552,0,0,1,5.258,2.179.973.973,0,0,0,1.229-.121l1.5-1.5,2.98,2.98-1.5,1.5a.973.973,0,0,0-.121,1.229,14.551,14.551,0,0,1,2.179,5.258.974.974,0,0,0,.955.783h2.118Z"/>
  </g>
</svg>
