<svg xmlns="http://www.w3.org/2000/svg" width="57.496" height="57.496" viewBox="0 0 57.496 57.496">
  <path id="Management" d="M57.5,25.484v6.527a3,3,0,0,1-3,3h-4.41a22.118,22.118,0,0,1-1.825,4.4l3.12,3.12a3,3,0,0,1,0,4.239l-4.615,4.615c-.027.027-.054.053-.082.079a.9.9,0,1,1-1.221-1.318l.033-.032L50.113,45.5a1.2,1.2,0,0,0,0-1.7l-3.6-3.6A.9.9,0,0,1,46.37,39.1a20.311,20.311,0,0,0,2.165-5.219.9.9,0,0,1,.87-.673H54.5a1.2,1.2,0,0,0,1.2-1.2V25.484a1.2,1.2,0,0,0-1.2-1.2H49.4a.9.9,0,0,1-.87-.673,20.325,20.325,0,0,0-2.165-5.219.9.9,0,0,1,.139-1.091l3.6-3.6a1.2,1.2,0,0,0,0-1.7L45.5,7.383a1.207,1.207,0,0,0-1.7,0l-3.6,3.6a.9.9,0,0,1-1.091.139,20.311,20.311,0,0,0-5.219-2.165.9.9,0,0,1-.673-.87V3a1.2,1.2,0,0,0-1.2-1.2H25.484a1.2,1.2,0,0,0-1.2,1.2V8.091a.9.9,0,0,1-.673.87,20.322,20.322,0,0,0-5.219,2.165.9.9,0,0,1-1.091-.139l-3.6-3.6a1.207,1.207,0,0,0-1.7,0L7.383,12a1.2,1.2,0,0,0,0,1.7l3.6,3.6a.9.9,0,0,1,.139,1.091A20.311,20.311,0,0,0,8.961,23.61a.9.9,0,0,1-.87.673H3a1.2,1.2,0,0,0-1.2,1.2v6.527a1.2,1.2,0,0,0,1.2,1.2H8.091a.9.9,0,0,1,.87.673A20.323,20.323,0,0,0,11.126,39.1a.9.9,0,0,1-.139,1.091l-3.6,3.6a1.2,1.2,0,0,0,0,1.7L12,50.113l.033.032a.9.9,0,1,1-1.221,1.318c-.028-.026-.057-.053-.084-.081L6.112,46.768a3,3,0,0,1,0-4.239l3.12-3.12a22.118,22.118,0,0,1-1.825-4.4H3a3,3,0,0,1-3-3V25.484a3,3,0,0,1,3-3h4.41a22.111,22.111,0,0,1,1.825-4.4l-3.12-3.12a3,3,0,0,1,0-4.24l4.615-4.615a3,3,0,0,1,4.239,0l3.12,3.12a22.118,22.118,0,0,1,4.4-1.825V3a3,3,0,0,1,3-3h6.527a3,3,0,0,1,3,3v4.41a22.111,22.111,0,0,1,4.4,1.825l3.12-3.12a3,3,0,0,1,4.239,0l4.615,4.615a3,3,0,0,1,0,4.239l-3.12,3.12a22.119,22.119,0,0,1,1.825,4.4H54.5a3,3,0,0,1,3,3ZM39.687,38.116a.9.9,0,0,0,1.258-.176,15.272,15.272,0,1,0-24.395,0,.9.9,0,0,0,1.434-1.082,13.476,13.476,0,1,1,21.526,0A.9.9,0,0,0,39.687,38.116Zm1.809,2.89a9.562,9.562,0,0,1,2.536,6.485V56.6a.9.9,0,0,1-.9.9H14.363a.9.9,0,0,1-.9-.9V47.49a9.629,9.629,0,0,1,8.729-9.56.9.9,0,0,1,.923.58l1.634,4.364,1.216,3.193.637-3.373-1.885-3.476a.9.9,0,0,1,.79-1.327h6.478a.9.9,0,0,1,.79,1.327l-1.885,3.476.637,3.373,1.218-3.2,1.633-4.359a.9.9,0,0,1,.923-.58A9.582,9.582,0,0,1,41.5,41.006ZM27.713,55.7,23.07,43.509l-1.385-3.7a7.868,7.868,0,0,0-6.424,7.679V55.7Zm1.035-2.33,1.558-4.091-1.239-6.564a.9.9,0,0,1,.093-.595l1.318-2.431H27.018l1.318,2.431a.9.9,0,0,1,.093.595L27.19,49.277ZM42.235,47.49a7.868,7.868,0,0,0-6.424-7.679L34.428,43.5,29.783,55.7H42.235Zm-13.487-26.9a8.279,8.279,0,1,1-8.279,8.279,8.289,8.289,0,0,1,8.279-8.279Zm0,1.8a6.482,6.482,0,1,0,6.482,6.482,6.49,6.49,0,0,0-6.482-6.482Z"/>
</svg>
