<svg xmlns="http://www.w3.org/2000/svg" width="57.001" height="57.563" viewBox="0 0 57.001 57.563">
  <path id="Member_Management" data-name="Member Management" d="M50.662,39.88A8.794,8.794,0,0,0,45.044,41.9L42.736,39.57a15.744,15.744,0,0,0,4.032-9.718H49.05a5.162,5.162,0,1,0,0-1.686H46.768a15.758,15.758,0,0,0-.43-2.934.843.843,0,0,0-1.638.4,14.136,14.136,0,0,1-4.018,13.629c-.359-3.308-3.206-4.072-5.322-4.639l-.423-.114c-.165-.045-.3-.268-.4-.5,2.1-1.441,3.665-3.9,3.665-6.042V26.025a8.174,8.174,0,0,0-2.232-5.932,7.114,7.114,0,0,0-4.953-2.082h-.029a7.286,7.286,0,0,0-2.971.689.843.843,0,0,0,.722,1.524,5.391,5.391,0,0,1,7.713,4.732,2.755,2.755,0,0,1-.8-.631,2.279,2.279,0,0,0-2.473-.806c-.329.085-.609.16-.852.225A6.016,6.016,0,0,1,31,24.025a6.016,6.016,0,0,1-1.328-.281c-.242-.065-.522-.14-.852-.225a2.278,2.278,0,0,0-2.473.806,2.752,2.752,0,0,1-.8.631,6.513,6.513,0,0,1,.907-2.7.843.843,0,1,0-1.432-.891A8.666,8.666,0,0,0,23.8,26.025v1.943c0,2.145,1.563,4.6,3.665,6.042-.1.232-.24.455-.407.5l-.419.113c-2.116.567-4.964,1.332-5.322,4.639a14.107,14.107,0,1,1,21.855-17.39l.006.01c.044.073.087.15.129.225l.038.068a.843.843,0,1,0,1.472-.822l-.036-.065c-.051-.093-.1-.186-.158-.276a15.84,15.84,0,0,0-1.883-2.568l2.351-2.375A8.81,8.81,0,0,0,55.8,15.645a.845.845,0,0,0,.134-.116,8.838,8.838,0,1,0-12.131-.559l-2.26,2.284a15.7,15.7,0,0,0-9.7-4.02V10.95a5.163,5.163,0,1,0-1.686,0v2.283a15.726,15.726,0,0,0-9.705,4.03l-2.275-2.276a8.837,8.837,0,1,0-12.115.542.845.845,0,0,0,.134.116,8.811,8.811,0,0,0,10.694.439l2.369,2.37a15.74,15.74,0,0,0-4.028,9.71H12.949a5.165,5.165,0,1,0,0,1.686H15.23a15.744,15.744,0,0,0,4.029,9.712l-2.3,2.3a8.854,8.854,0,1,0,1.192,1.193l2.3-2.3q.3.273.621.532a4.907,4.907,0,0,0,.636.489,15.7,15.7,0,0,0,8.448,3.01v2.283a5.163,5.163,0,1,0,1.686,0V44.788a15.7,15.7,0,0,0,8.448-3.01.846.846,0,0,0,.158-.116q.568-.425,1.094-.9l2.308,2.333a8.826,8.826,0,0,0,1.027,12.3.845.845,0,0,0,.164.142,8.818,8.818,0,0,0,11.239,0,.849.849,0,0,0,.164-.142A8.836,8.836,0,0,0,50.662,39.88Zm3.48-14.347a3.477,3.477,0,1,1-3.477,3.475A3.48,3.48,0,0,1,54.143,25.533ZM50.167,16a7.111,7.111,0,0,1-4.293-1.436,4.335,4.335,0,0,1,2.117-3.325,4.207,4.207,0,0,0,4.351,0A4.335,4.335,0,0,1,54.46,14.56,7.111,7.111,0,0,1,50.167,16ZM47.637,7.622a2.531,2.531,0,1,1,2.531,2.532,2.534,2.534,0,0,1-2.531-2.532Zm-4.62,1.219a7.151,7.151,0,1,1,12.865,4.3,6.043,6.043,0,0,0-2.269-3.088,4.217,4.217,0,1,0-6.892,0,6.043,6.043,0,0,0-2.269,3.088,7.12,7.12,0,0,1-1.436-4.3ZM27.523,5.855A3.477,3.477,0,1,1,31,9.333,3.48,3.48,0,0,1,27.523,5.855ZM11.831,16A7.111,7.111,0,0,1,7.539,14.56a4.335,4.335,0,0,1,2.117-3.325,4.207,4.207,0,0,0,4.351,0,4.336,4.336,0,0,1,2.117,3.325A7.111,7.111,0,0,1,11.831,16ZM9.3,7.622a2.531,2.531,0,1,1,2.531,2.532A2.534,2.534,0,0,1,9.3,7.622Zm5.976,2.427a4.217,4.217,0,1,0-6.892,0,6.042,6.042,0,0,0-2.269,3.088,7.151,7.151,0,1,1,11.429,0A6.042,6.042,0,0,0,15.277,10.049ZM7.856,32.487a3.477,3.477,0,1,1,3.477-3.479,3.482,3.482,0,0,1-3.477,3.479Zm3.48,23.352A7.111,7.111,0,0,1,7.044,54.4,4.333,4.333,0,0,1,9.16,51.077a4.207,4.207,0,0,0,4.351,0A4.334,4.334,0,0,1,15.629,54.4,7.111,7.111,0,0,1,11.336,55.839Zm-2.53-8.374A2.531,2.531,0,1,1,11.336,50,2.534,2.534,0,0,1,8.806,47.465Zm8.245,5.515a6.041,6.041,0,0,0-2.268-3.089,4.217,4.217,0,1,0-6.895,0,6.039,6.039,0,0,0-2.267,3.09,7.151,7.151,0,1,1,11.43,0Zm8.436-25.012V26.749a3.957,3.957,0,0,0,2.065-1.244c.4-.4.447-.457.847-.354.324.084.6.157.837.221A6.82,6.82,0,0,0,31,25.712a6.815,6.815,0,0,0,1.764-.339c.238-.064.513-.138.836-.221.4-.1.451-.051.847.353a3.957,3.957,0,0,0,2.065,1.244v1.219c0,1.971-2.009,4.51-4.216,5.328a3.27,3.27,0,0,1-2.595,0c-2.205-.817-4.214-3.356-4.214-5.327Zm8.339,7.84-2.391,1.4-.033.02c-.391.254-.413.254-.8,0l-.033-.02-2.391-1.4a2.714,2.714,0,0,0,.778-1c.054.022.107.044.162.064a4.927,4.927,0,0,0,3.771,0c.055-.02.109-.043.164-.065a2.715,2.715,0,0,0,.778,1Zm.651,16.355A3.477,3.477,0,1,1,31,48.687,3.482,3.482,0,0,1,34.476,52.163ZM39.034,40.6a14.066,14.066,0,0,1-16.069,0v-.62c0-2.115,1.156-2.847,3.115-3.449l3.616,2.12a2.105,2.105,0,0,0,2.608,0l3.616-2.12c1.959.6,3.115,1.334,3.115,3.449ZM50.662,55.877A7.111,7.111,0,0,1,46.37,54.44a4.336,4.336,0,0,1,2.118-3.325,4.207,4.207,0,0,0,4.351,0,4.335,4.335,0,0,1,2.116,3.326,7.111,7.111,0,0,1-4.292,1.436ZM48.132,47.5a2.531,2.531,0,1,1,2.531,2.532A2.534,2.534,0,0,1,48.132,47.5Zm8.245,5.515a6.04,6.04,0,0,0-2.267-3.091,4.217,4.217,0,1,0-6.894,0,6.043,6.043,0,0,0-2.267,3.09,7.151,7.151,0,1,1,11.429,0Z" transform="translate(-2.499)"/>
</svg>
