<svg id="Notification_Management" data-name="Notification Management" xmlns="http://www.w3.org/2000/svg" xmlns:xlink="http://www.w3.org/1999/xlink" width="46.492" height="57.926" viewBox="0 0 46.492 57.926">
  <defs>
    <clipPath id="clip-path">
      <rect id="Rectangle_55" data-name="Rectangle 55" width="46.492" height="57.926" fill="none"/>
    </clipPath>
  </defs>
  <g id="Group_142" data-name="Group 142" clip-path="url(#clip-path)">
    <path id="Path_69" data-name="Path 69" d="M38.157,115.378H5.057A5.062,5.062,0,0,1,0,110.321a4.96,4.96,0,0,1,1.5-3.582,4.935,4.935,0,0,1,3.556-1.475h33.1a5.062,5.062,0,0,1,5.057,5.057,5.081,5.081,0,0,1-5.057,5.057m-33.1-7.356a2.324,2.324,0,0,0-2.3,2.3,2.3,2.3,0,0,0,2.3,2.3h33.1a2.325,2.325,0,0,0,2.3-2.3,2.3,2.3,0,0,0-2.3-2.3Z" transform="translate(0 -64.808)"/>
    <path id="Path_70" data-name="Path 70" d="M42.228,134.517a8.745,8.745,0,0,1-8.735-8.735,1.379,1.379,0,0,1,1.379-1.379H49.583a1.379,1.379,0,0,1,1.379,1.379,8.745,8.745,0,0,1-8.735,8.735m-5.817-7.356a5.978,5.978,0,0,0,11.633,0Z" transform="translate(-20.621 -76.591)"/>
    <path id="Path_71" data-name="Path 71" d="M10.948,55a1.38,1.38,0,0,1-1.379-1.379V37.068A17.95,17.95,0,0,1,27.5,19.139,17.584,17.584,0,0,1,34.56,20.6a1.379,1.379,0,0,1-1.1,2.529A14.837,14.837,0,0,0,27.5,21.9,15.189,15.189,0,0,0,12.328,37.068v16.55A1.38,1.38,0,0,1,10.948,55" transform="translate(-5.891 -11.783)"/>
    <path id="Path_72" data-name="Path 72" d="M97.073,99.126a1.38,1.38,0,0,1-1.379-1.379V92.193a1.379,1.379,0,0,1,2.759,0v5.553a1.38,1.38,0,0,1-1.379,1.379" transform="translate(-58.916 -55.911)"/>
    <path id="Path_73" data-name="Path 73" d="M50.046,10.85a1.379,1.379,0,0,1-1.219-2.019,4.137,4.137,0,1,0-7.305,0,1.378,1.378,0,1,1-2.442,1.279,6.9,6.9,0,1,1,12.19,0,1.377,1.377,0,0,1-1.223.74Z" transform="translate(-23.567 -0.001)"/>
    <path id="Path_74" data-name="Path 74" d="M86.078,41.216l-.461-.153c.026-.285.039-.571.038-.855s-.013-.573-.039-.857l.46-.151a1.1,1.1,0,0,0,.7-1.38l-.621-1.912a1.1,1.1,0,0,0-1.388-.706l-.45.14a9.417,9.417,0,0,0-1-1.386l.284-.39a1.1,1.1,0,0,0-.246-1.535L81.72,30.864a1.088,1.088,0,0,0-.643-.209,1.1,1.1,0,0,0-.886.45l-.286.392a9.3,9.3,0,0,0-1.628-.531v-.482a1.1,1.1,0,0,0-1.1-1.1H75.17a1.1,1.1,0,0,0-1.1,1.1v.482a9.268,9.268,0,0,0-1.631.53l-.283-.39a1.1,1.1,0,0,0-.886-.45,1.088,1.088,0,0,0-.643.208L69,32.044a1.094,1.094,0,0,0-.27,1.491l.007.013.3.42a9.367,9.367,0,0,0-1,1.385l-.458-.15a1.1,1.1,0,0,0-1.381.706l-.621,1.911a1.1,1.1,0,0,0,.7,1.38l.458.152c-.029.282-.045.569-.048.855s.013.572.038.858l-.46.151a1.1,1.1,0,0,0-.7,1.38l.621,1.912a1.1,1.1,0,0,0,1.321.726l.518-.159a9.323,9.323,0,0,0,1,1.385l-.283.39a1.1,1.1,0,0,0,.237,1.532l1.632,1.182a1.088,1.088,0,0,0,.647.212,1.108,1.108,0,0,0,.9-.465l.286-.391a9.358,9.358,0,0,0,1.628.53v.482a1.1,1.1,0,0,0,1.1,1.1h2.012a1.1,1.1,0,0,0,1.1-1.1V49.45a9.255,9.255,0,0,0,1.628-.53l.283.391a1.1,1.1,0,0,0,1.528.241l1.63-1.18a1.1,1.1,0,0,0,.264-1.5l-.017-.035-.024-.024-.263-.365a9.446,9.446,0,0,0,1-1.385l.461.15a1.1,1.1,0,0,0,1.381-.706l.62-1.909a1.1,1.1,0,0,0-.686-1.382m-2.921,2.828a8.079,8.079,0,0,1-1.191,1.641,1.106,1.106,0,0,0-.1,1.379l.237.327-.938.681-.238-.327a1.1,1.1,0,0,0-1.364-.341,7.773,7.773,0,0,1-1.9.635,1.09,1.09,0,0,0-.9,1.089v.38H75.6v-.4a1.092,1.092,0,0,0-.895-1.095,7.9,7.9,0,0,1-1.926-.637,1.086,1.086,0,0,0-.471-.106,1.1,1.1,0,0,0-.883.447l-.242.332-.934-.665.234-.324a1.1,1.1,0,0,0-.091-1.4,8.042,8.042,0,0,1-1.185-1.63,1.095,1.095,0,0,0-1.306-.545l-.384.126-.358-1.09.383-.126a1.1,1.1,0,0,0,.746-1.181,8.105,8.105,0,0,1,0-2.024,1.1,1.1,0,0,0-.746-1.184l-.384-.126.358-1.1.392.135a1.093,1.093,0,0,0,1.293-.537,8.053,8.053,0,0,1,1.188-1.636,1.1,1.1,0,0,0,.1-1.4l-.237-.327.938-.681.237.327a1.1,1.1,0,0,0,1.364.34,7.788,7.788,0,0,1,1.9-.635,1.09,1.09,0,0,0,.9-1.089v-.379H76.75v.4a1.091,1.091,0,0,0,.893,1.095,7.878,7.878,0,0,1,1.911.637,1.084,1.084,0,0,0,.47.106,1.1,1.1,0,0,0,.884-.447l.239-.327.939.683-.22.3a1.1,1.1,0,0,0,.093,1.4,8.079,8.079,0,0,1,1.191,1.628,1.095,1.095,0,0,0,1.306.546l.383-.125L85.2,37.9l-.385.126a1.1,1.1,0,0,0-.745,1.181,8.127,8.127,0,0,1,0,2.024,1.1,1.1,0,0,0,.746,1.184l.383.126-.359,1.088-.391-.126a1.115,1.115,0,0,0-.323-.048,1.086,1.086,0,0,0-.97.585" transform="translate(-40.339 -18.093)"/>
    <path id="Path_75" data-name="Path 75" d="M84.736,54.343a5.312,5.312,0,1,1,5.312-5.312,5.318,5.318,0,0,1-5.312,5.312m0-9.087a3.775,3.775,0,1,0,3.775,3.775,3.779,3.779,0,0,0-3.775-3.775" transform="translate(-48.899 -26.916)"/>
  </g>
</svg>
