<svg xmlns="http://www.w3.org/2000/svg" width="61" height="60.999" viewBox="0 0 61 60.999">
  <g id="Podcast_Management" data-name="Podcast Management" transform="translate(0 -0.001)">
    <path id="Path_65" data-name="Path 65" d="M30.5,53A22.5,22.5,0,1,0,8,30.5,22.5,22.5,0,0,0,30.5,53ZM24.363,50.01v-1.1a1.023,1.023,0,0,1,1.023-1.023H35.613a1.023,1.023,0,0,1,1.023,1.023v1.1a20.438,20.438,0,0,1-12.272,0Zm9.2-28.715h3.068v4.091H33.568a1.023,1.023,0,1,0,0,2.045h3.068v4.091H33.568a1.023,1.023,0,1,0,0,2.045h3.068a4.091,4.091,0,0,1-4.091,4.091H28.454a4.091,4.091,0,0,1-4.091-4.091h3.068a1.023,1.023,0,0,0,0-2.045H24.363V27.431h3.068a1.023,1.023,0,0,0,0-2.045H24.363V21.3h3.068a1.023,1.023,0,0,0,0-2.045H24.363a4.091,4.091,0,0,1,4.091-4.091h4.091a4.091,4.091,0,0,1,4.091,4.091H33.568a1.023,1.023,0,1,0,0,2.045ZM22.318,33.567A6.142,6.142,0,0,0,28.454,39.7h4.091a6.142,6.142,0,0,0,6.136-6.136V27.431H39.7a1.023,1.023,0,0,1,1.023,1.023v5.114a8.191,8.191,0,0,1-8.182,8.182H28.454a8.191,8.191,0,0,1-8.182-8.182V28.454A1.023,1.023,0,0,1,21.3,27.431h1.023Zm7.159,10.227h2.045V45.84H29.477ZM30.5,10.045a20.447,20.447,0,0,1,8.182,39.189v-.326a3.068,3.068,0,0,0-3.068-3.068H33.568v-2.1a10.24,10.24,0,0,0,9.2-10.175V28.454A3.068,3.068,0,0,0,39.7,25.386H38.681V19.25a6.142,6.142,0,0,0-6.136-6.136H28.454a6.142,6.142,0,0,0-6.136,6.136v6.136H21.3a3.068,3.068,0,0,0-3.068,3.068v5.113a10.24,10.24,0,0,0,9.2,10.175v2.1H25.386a3.068,3.068,0,0,0-3.068,3.068v.326A20.447,20.447,0,0,1,30.5,10.045Z"/>
    <path id="Path_66" data-name="Path 66" d="M1.83,25.612a2.745,2.745,0,0,0-1.71,2.27,28.719,28.719,0,0,0,0,5.233,2.745,2.745,0,0,0,1.716,2.273l2.936,1.173A26.191,26.191,0,0,0,8.025,44.4l-1.243,2.91a2.686,2.686,0,0,0,.4,2.83,30.274,30.274,0,0,0,3.678,3.678,2.688,2.688,0,0,0,2.828.4L16.6,52.974a26.191,26.191,0,0,0,7.837,3.253l1.175,2.941a2.751,2.751,0,0,0,2.271,1.713c.894.079,1.8.118,2.691.118s1.75-.039,2.542-.118a2.753,2.753,0,0,0,2.272-1.717l1.173-2.936A26.191,26.191,0,0,0,44.4,52.975l2.91,1.242a2.683,2.683,0,0,0,2.83-.4,30.179,30.179,0,0,0,3.677-3.677,2.686,2.686,0,0,0,.4-2.829L52.974,44.4a26.191,26.191,0,0,0,3.253-7.837l2.941-1.176a2.751,2.751,0,0,0,1.713-2.271,28.957,28.957,0,0,0,0-5.238,2.752,2.752,0,0,0-1.716-2.267L56.23,24.437A26.191,26.191,0,0,0,52.976,16.6l1.242-2.91a2.689,2.689,0,0,0-.4-2.83,30.256,30.256,0,0,0-3.677-3.677,2.69,2.69,0,0,0-2.829-.407L44.4,8.024a26.191,26.191,0,0,0-7.837-3.253L35.386,1.83A2.745,2.745,0,0,0,33.116.12a28.807,28.807,0,0,0-5.233,0A2.745,2.745,0,0,0,25.61,1.836L24.437,4.772A26.191,26.191,0,0,0,16.6,8.025L13.69,6.782a2.69,2.69,0,0,0-2.831.4A30.327,30.327,0,0,0,7.182,10.86a2.688,2.688,0,0,0-.4,2.828L8.024,16.6a26.191,26.191,0,0,0-3.253,7.837Zm4.81-.218a24.216,24.216,0,0,1,3.379-8.149,1.017,1.017,0,0,0,.082-.953l-1.451-3.4a.675.675,0,0,1,.087-.72,28.371,28.371,0,0,1,3.443-3.441.668.668,0,0,1,.712-.075L16.3,10.1a1.017,1.017,0,0,0,.953-.082A24.216,24.216,0,0,1,25.4,6.642a1.017,1.017,0,0,0,.732-.617l1.37-3.43a.712.712,0,0,1,.576-.45,26.768,26.768,0,0,1,4.863,0,.712.712,0,0,1,.563.445l1.368,3.435a1.017,1.017,0,0,0,.732.617,24.215,24.215,0,0,1,8.149,3.379,1.017,1.017,0,0,0,.953.082l3.4-1.453a.673.673,0,0,1,.72.087,28.3,28.3,0,0,1,3.441,3.443.671.671,0,0,1,.075.712l-1.452,3.4a1.017,1.017,0,0,0,.082.953A24.215,24.215,0,0,1,54.356,25.4a1.017,1.017,0,0,0,.617.732L58.4,27.5a.712.712,0,0,1,.45.566v.01a26.94,26.94,0,0,1,0,4.862.712.712,0,0,1-.446.564l-3.433,1.368a1.017,1.017,0,0,0-.617.732,24.216,24.216,0,0,1-3.379,8.149,1.017,1.017,0,0,0-.082.953l1.453,3.4a.671.671,0,0,1-.088.72,28.227,28.227,0,0,1-3.443,3.442.664.664,0,0,1-.712.074l-3.4-1.452a1.023,1.023,0,0,0-.953.082A24.215,24.215,0,0,1,35.6,54.356a1.017,1.017,0,0,0-.732.617L33.5,58.4a.712.712,0,0,1-.576.451,26.941,26.941,0,0,1-4.862,0,.712.712,0,0,1-.564-.446l-1.367-3.434a1.017,1.017,0,0,0-.732-.617,24.216,24.216,0,0,1-8.149-3.379,1.011,1.011,0,0,0-.953-.082l-3.4,1.453a.677.677,0,0,1-.72-.087,28.318,28.318,0,0,1-3.442-3.444.669.669,0,0,1-.074-.712L10.1,44.7a1.017,1.017,0,0,0-.082-.953A24.216,24.216,0,0,1,6.643,35.6a1.017,1.017,0,0,0-.617-.732L2.594,33.5a.712.712,0,0,1-.45-.576,26.678,26.678,0,0,1,0-4.863.712.712,0,0,1,.445-.563l3.435-1.371a1.017,1.017,0,0,0,.617-.733Z" transform="translate(0 0)"/>
  </g>
</svg>
