<svg xmlns="http://www.w3.org/2000/svg" xmlns:xlink="http://www.w3.org/1999/xlink" width="61.494" height="61.495" viewBox="0 0 61.494 61.495">
  <defs>
    <clipPath id="clip-path">
      <rect id="Rectangle_52" data-name="Rectangle 52" width="61.494" height="61.495" transform="translate(0 0)" fill="none"/>
    </clipPath>
  </defs>
  <g id="Programs_Management" data-name="Programs Management" transform="translate(0 0)">
    <g id="Group_134" data-name="Group 134" clip-path="url(#clip-path)">
      <path id="Path_62" data-name="Path 62" d="M30.746,13.082h0a17.666,17.666,0,0,0-.2,35.33v.008h.2a17.669,17.669,0,1,0,0-35.338m0,33.489-.165.015a15.817,15.817,0,0,1-15.436-13.1,2.052,2.052,0,0,0,.46-.386c.839.607,1.8,1.262,2.854,1.95l-.782,1.124a2.656,2.656,0,0,0,2.092,4.175c.007.071.015.143.027.214a2.652,2.652,0,0,0,1.09,1.713,2.6,2.6,0,0,0,1.517.48,2.836,2.836,0,0,0,.468-.041,2.621,2.621,0,0,0,.378-.1,2.656,2.656,0,0,0,2.4,1.557,2.725,2.725,0,0,0,.469-.041,2.565,2.565,0,0,0,.379-.1,2.648,2.648,0,0,0,4.589.426l.328-.467.126.087a2.654,2.654,0,0,0,4.165-1.965,2.566,2.566,0,0,0,.391-.04,2.623,2.623,0,0,0,2.185-2.431,2.651,2.651,0,0,0,2.069-1.128,2.612,2.612,0,0,0,.47-1.286,2.649,2.649,0,0,0,2.6-2.347,8.058,8.058,0,0,0,2.608-1.635,2.1,2.1,0,0,0,.305.227A15.818,15.818,0,0,1,30.745,46.571M21.752,24.333a23.854,23.854,0,0,0,3.622,1.224c-.945.856-1.855,1.763-2.718,2.708l-.058.085a.919.919,0,0,0,.324,1.257,7.116,7.116,0,0,0,3.418,1.2,2.542,2.542,0,0,0,1.128-.243,5.269,5.269,0,0,0,2.718-2.17,6.764,6.764,0,0,0,3.207-.307,37.5,37.5,0,0,0,6.086,4.606l.422.282c.5.334.966.645,1.357.916a.827.827,0,0,1-.467,1.506.8.8,0,0,1-.476-.155l-2.667-1.866a.91.91,0,0,0-.525-.167.915.915,0,0,0-.525,1.665l2.046,1.432a.824.824,0,0,1-.494,1.484.815.815,0,0,1-.446-.132L36.2,36.6a.916.916,0,0,0-1,1.532l.915.64a.826.826,0,0,1-.489,1.493.817.817,0,0,1-.455-.137l-.539-.375-.068-.07h-.034a.915.915,0,0,0-.988,1.535.827.827,0,0,1-.475,1.5.814.814,0,0,1-.471-.15l-.179-.125a2.636,2.636,0,0,0-.922-3.194,2.589,2.589,0,0,0-1.317-.472,2.657,2.657,0,0,0-2.444-2.573,2.964,2.964,0,0,0-.037-.392,2.647,2.647,0,0,0-2.607-2.187,2.678,2.678,0,0,0-.468.042c-.071.013-.142.029-.211.048a2.676,2.676,0,0,0-.95-1.2,2.649,2.649,0,0,0-3.69.661l-.25.357c-1.019-.663-1.975-1.316-2.845-1.945ZM19.173,37.214l2.087-2.98a.823.823,0,0,1,1.353.934L20.52,38.157a.822.822,0,0,1-.674.35.822.822,0,0,1-.673-1.293m2.561,2.4,2.666-3.8a.818.818,0,0,1,.527-.338,1.142,1.142,0,0,1,.155-.012.813.813,0,0,1,.8.677.821.821,0,0,1-.133.617l-2.667,3.8a.84.84,0,0,1-.683.35.792.792,0,0,1-.462-.146.833.833,0,0,1-.2-1.147m3.25,1.428,1.863-2.659a.82.82,0,0,1,1.145-.2.821.821,0,0,1,.2,1.144L26.34,41.981a.831.831,0,0,1-.662.332.825.825,0,0,1-.694-1.269m3.206,1.482,1.089-1.553a.825.825,0,0,1,1.357.925l-1.051,1.5a.827.827,0,0,1-.667.34.826.826,0,0,1-.728-1.209m14.789-9.441a2.628,2.628,0,0,0-.673-.682c-.516-.362-1.148-.783-1.818-1.225-2.02-1.335-5.071-3.352-6.136-4.753a.92.92,0,0,0-.731-.364.892.892,0,0,0-.456.122,4.892,4.892,0,0,1-2.107.48,4.966,4.966,0,0,1-1.3-.175.887.887,0,0,0-.169-.016.914.914,0,0,0-.9.768c-.088.546-.787,1.137-2.009,1.684a.776.776,0,0,1-.352.065,3.65,3.65,0,0,1-1.439-.4c.752-.739,1.928-1.861,3.448-3.307,1.843-.618,3.006-1.033,3.608-1.292a11.844,11.844,0,0,1,1.574-.1,12.3,12.3,0,0,1,2.215.2,36.806,36.806,0,0,0,4.015.266l5.189,7.409a6.373,6.373,0,0,1-1.961,1.32M40.268,21.893a.186.186,0,0,1,.049-.26l2.155-1.516a15.724,15.724,0,0,1,4.1,10.624s0,.148,0,.17Zm-1-1.757a2.027,2.027,0,0,0-.735,2.35c-.764-.038-1.627-.111-2.561-.215a12.847,12.847,0,0,0-4.469-.06.806.806,0,0,0-.158.05c-.608.26-1.862.706-3.729,1.328a.9.9,0,0,0-.334.2L27,24.049A21.716,21.716,0,0,1,22.817,22.8a2.024,2.024,0,0,0-.582-2.666l-1.893-1.324a15.8,15.8,0,0,1,20.806,0Zm-18.089,1.5a.187.187,0,0,1,.05.257l-6.317,9.019c0-.056,0-.112,0-.169a15.736,15.736,0,0,1,4.1-10.622Z"/>
      <path id="Path_63" data-name="Path 63" d="M59.664,24.109l-6.313-.965a23.964,23.964,0,0,0-1.25-3.009l3.779-5.144a2.163,2.163,0,0,0-.214-2.805L49.3,5.824a2.148,2.148,0,0,0-2.8-.214L41.351,9.389a24.291,24.291,0,0,0-3.007-1.25L37.376,1.83A2.166,2.166,0,0,0,35.242,0H26.234a2.138,2.138,0,0,0-2.127,1.829l-.968,6.31a23.894,23.894,0,0,0-3.008,1.249L14.988,5.61a2.144,2.144,0,0,0-2.8.213L5.824,12.186a2.158,2.158,0,0,0-.215,2.8l3.779,5.148A23.717,23.717,0,0,0,8.14,23.145l-6.31.968A2.16,2.16,0,0,0,0,26.247v9a2.156,2.156,0,0,0,1.832,2.133l.185.023,6.123.942a23.808,23.808,0,0,0,1.247,3.007L5.61,46.5A2.159,2.159,0,0,0,5.824,49.3l6.361,6.36a2.143,2.143,0,0,0,2.8.214L20.137,52.1a23.555,23.555,0,0,0,3.006,1.254l.968,6.309a2.165,2.165,0,0,0,2.135,1.834h9.008a2.162,2.162,0,0,0,2.126-1.831l.964-6.312A23.833,23.833,0,0,0,41.351,52.1L46.5,55.879a2.146,2.146,0,0,0,2.8-.213l6.362-6.36a2.163,2.163,0,0,0,.214-2.805L52.1,41.355a23.9,23.9,0,0,0,1.252-3.009l6.312-.971a2.16,2.16,0,0,0,1.831-2.133v-9a2.161,2.161,0,0,0-1.83-2.134M51.77,37.26a22.2,22.2,0,0,1-1.559,3.757.918.918,0,0,0,.071.97l4.114,5.6a.321.321,0,0,1-.033.423L48,54.376a.318.318,0,0,1-.422.03l-5.6-4.111a.914.914,0,0,0-.969-.072,21.9,21.9,0,0,1-3.754,1.546.917.917,0,0,0-.632.736l-1.057,6.872a.319.319,0,0,1-.321.274H26.235a.318.318,0,0,1-.313-.278l-1.056-6.868a.921.921,0,0,0-.634-.736,22.205,22.205,0,0,1-3.757-1.558.922.922,0,0,0-.428-.106.908.908,0,0,0-.541.177L13.9,54.4a.312.312,0,0,1-.191.064.321.321,0,0,1-.231-.1L7.118,48a.318.318,0,0,1-.03-.422l4.111-5.6a.924.924,0,0,0,.072-.97,21.93,21.93,0,0,1-1.559-3.748.916.916,0,0,0-.736-.634L2.105,35.568a.318.318,0,0,1-.273-.321V26.239a.32.32,0,0,1,.276-.321l6.869-1.05a.915.915,0,0,0,.737-.637,22.1,22.1,0,0,1,1.557-3.756.918.918,0,0,0-.072-.969L7.085,13.9a.317.317,0,0,1,.034-.421l6.366-6.365a.314.314,0,0,1,.228-.1.319.319,0,0,1,.195.066l5.6,4.113a.908.908,0,0,0,.541.177.922.922,0,0,0,.428-.106,21.983,21.983,0,0,1,3.756-1.559.918.918,0,0,0,.635-.735l1.053-6.872a.318.318,0,0,1,.321-.272h9.009a.316.316,0,0,1,.312.276l1.061,6.868a.917.917,0,0,0,.632.734,21.894,21.894,0,0,1,3.757,1.559.926.926,0,0,0,.429.106.908.908,0,0,0,.541-.177l5.6-4.115a.318.318,0,0,1,.421.034l6.359,6.369a.317.317,0,0,1,.03.421l-4.11,5.6a.917.917,0,0,0-.075.972,21.989,21.989,0,0,1,1.559,3.758.915.915,0,0,0,.734.633l6.871,1.054a.318.318,0,0,1,.274.325v9a.318.318,0,0,1-.276.319l-6.868,1.054a.915.915,0,0,0-.735.634"/>
    </g>
  </g>
</svg>
